<svg width="310" height="60" viewBox="0 0 310 60" fill="none" xmlns="http://www.w3.org/2000/svg">
<path d="M6.84 4.96H9.384L16.008 22H13.176L11.376 17.368H4.8L3.024 22H0.168L6.84 4.96ZM10.848 15.376L8.112 7.912L5.28 15.376H10.848ZM23.0923 22.24C21.7963 22.24 20.6603 21.944 19.6843 21.352C18.7083 20.744 17.9483 19.944 17.4043 18.952C16.8603 17.96 16.5883 16.88 16.5883 15.712C16.5883 14.544 16.8523 13.472 17.3803 12.496C17.9243 11.504 18.6763 10.712 19.6363 10.12C20.6123 9.528 21.7643 9.232 23.0923 9.232C24.3883 9.232 25.5003 9.52 26.4283 10.096C27.3723 10.656 28.0763 11.408 28.5403 12.352L25.9723 13.168C25.6843 12.64 25.2763 12.232 24.7483 11.944C24.2363 11.64 23.6683 11.488 23.0443 11.488C22.3403 11.488 21.7003 11.672 21.1243 12.04C20.5643 12.392 20.1163 12.888 19.7803 13.528C19.4603 14.168 19.3003 14.896 19.3003 15.712C19.3003 16.528 19.4683 17.256 19.8043 17.896C20.1563 18.536 20.6123 19.048 21.1723 19.432C21.7483 19.8 22.3803 19.984 23.0683 19.984C23.7083 19.984 24.3163 19.816 24.8923 19.48C25.4683 19.144 25.8523 18.736 26.0443 18.256L28.6363 19.024C28.2203 19.968 27.5243 20.744 26.5483 21.352C25.5723 21.944 24.4203 22.24 23.0923 22.24ZM42.0666 22H39.4266V14.968C39.4266 13.832 39.2186 12.984 38.8026 12.424C38.3866 11.864 37.8026 11.584 37.0506 11.584C36.5706 11.584 36.0826 11.712 35.5866 11.968C35.1066 12.224 34.6746 12.576 34.2906 13.024C33.9066 13.456 33.6266 13.96 33.4506 14.536V22H30.8106V4.48H33.4506V11.968C33.9306 11.104 34.5866 10.432 35.4186 9.952C36.2506 9.472 37.1466 9.232 38.1066 9.232C39.1466 9.232 39.9546 9.472 40.5306 9.952C41.1066 10.416 41.5066 11.04 41.7306 11.824C41.9546 12.592 42.0666 13.432 42.0666 14.344V22ZM50.8189 22.24C49.5229 22.24 48.3869 21.944 47.4109 21.352C46.4349 20.76 45.6749 19.976 45.1309 19C44.5869 18.008 44.3149 16.928 44.3149 15.76C44.3149 14.576 44.5869 13.488 45.1309 12.496C45.6749 11.504 46.4349 10.712 47.4109 10.12C48.3869 9.528 49.5309 9.232 50.8429 9.232C52.1549 9.232 53.2909 9.536 54.2509 10.144C55.2109 10.736 55.9469 11.52 56.4589 12.496C56.9869 13.472 57.2509 14.52 57.2509 15.64C57.2509 16.04 57.2269 16.36 57.1789 16.6H47.1229C47.1709 17.336 47.3709 17.984 47.7229 18.544C48.0909 19.088 48.5469 19.52 49.0909 19.84C49.6509 20.144 50.2589 20.296 50.9149 20.296C51.6189 20.296 52.2829 20.12 52.9069 19.768C53.5309 19.416 53.9629 18.952 54.2029 18.376L56.4589 19.024C56.0269 19.968 55.3069 20.744 54.2989 21.352C53.3069 21.944 52.1469 22.24 50.8189 22.24ZM47.0509 14.848H54.6349C54.5709 14.128 54.3629 13.496 54.0109 12.952C53.6589 12.392 53.2029 11.96 52.6429 11.656C52.0989 11.336 51.4909 11.176 50.8189 11.176C50.1629 11.176 49.5549 11.336 48.9949 11.656C48.4509 11.96 48.0029 12.392 47.6509 12.952C47.2989 13.496 47.0989 14.128 47.0509 14.848ZM66.2711 21.352C65.9351 21.512 65.4711 21.696 64.8791 21.904C64.2871 22.096 63.6551 22.192 62.9831 22.192C62.1511 22.192 61.4311 21.968 60.8231 21.52C60.2311 21.072 59.9351 20.344 59.9351 19.336V11.488H58.2791V9.448H59.9351V5.32H62.5751V9.448H65.3111V11.488H62.5751V18.496C62.6071 18.944 62.7431 19.272 62.9831 19.48C63.2391 19.672 63.5511 19.768 63.9191 19.768C64.2871 19.768 64.6391 19.704 64.9751 19.576C65.3111 19.448 65.5591 19.344 65.7191 19.264L66.2711 21.352ZM73.6236 22.24C72.3276 22.24 71.1916 21.944 70.2156 21.352C69.2396 20.76 68.4796 19.976 67.9356 19C67.3916 18.008 67.1196 16.928 67.1196 15.76C67.1196 14.576 67.3916 13.488 67.9356 12.496C68.4796 11.504 69.2396 10.712 70.2156 10.12C71.1916 9.528 72.3356 9.232 73.6476 9.232C74.9596 9.232 76.0956 9.536 77.0556 10.144C78.0156 10.736 78.7516 11.52 79.2636 12.496C79.7916 13.472 80.0556 14.52 80.0556 15.64C80.0556 16.04 80.0316 16.36 79.9836 16.6H69.9276C69.9756 17.336 70.1756 17.984 70.5276 18.544C70.8956 19.088 71.3516 19.52 71.8956 19.84C72.4556 20.144 73.0636 20.296 73.7196 20.296C74.4236 20.296 75.0876 20.12 75.7116 19.768C76.3356 19.416 76.7676 18.952 77.0076 18.376L79.2636 19.024C78.8316 19.968 78.1116 20.744 77.1036 21.352C76.1116 21.944 74.9516 22.24 73.6236 22.24ZM69.8556 14.848H77.4396C77.3756 14.128 77.1676 13.496 76.8156 12.952C76.4636 12.392 76.0076 11.96 75.4476 11.656C74.9036 11.336 74.2956 11.176 73.6236 11.176C72.9676 11.176 72.3596 11.336 71.7996 11.656C71.2556 11.96 70.8076 12.392 70.4556 12.952C70.1036 13.496 69.9036 14.128 69.8556 14.848ZM89.265 11.728C88.241 11.76 87.329 12 86.529 12.448C85.745 12.88 85.185 13.504 84.849 14.32V22H82.209V9.448H84.657V12.256C85.089 11.392 85.657 10.704 86.361 10.192C87.065 9.664 87.809 9.376 88.593 9.328C88.737 9.328 88.865 9.328 88.977 9.328C89.089 9.328 89.185 9.336 89.265 9.352V11.728ZM96.6002 4.48H99.2402V18.376C99.2402 19.016 99.3362 19.424 99.5282 19.6C99.7202 19.776 99.9602 19.864 100.248 19.864C100.568 19.864 100.872 19.832 101.16 19.768C101.448 19.704 101.688 19.624 101.88 19.528L102.264 21.616C101.88 21.776 101.424 21.912 100.896 22.024C100.368 22.136 99.8962 22.192 99.4802 22.192C98.5842 22.192 97.8802 21.944 97.3682 21.448C96.8562 20.936 96.6002 20.232 96.6002 19.336V4.48ZM109.483 22.24C108.187 22.24 107.051 21.944 106.075 21.352C105.099 20.76 104.339 19.976 103.795 19C103.251 18.008 102.979 16.928 102.979 15.76C102.979 14.576 103.251 13.488 103.795 12.496C104.339 11.504 105.099 10.712 106.075 10.12C107.051 9.528 108.195 9.232 109.507 9.232C110.819 9.232 111.955 9.536 112.915 10.144C113.875 10.736 114.611 11.52 115.123 12.496C115.651 13.472 115.915 14.52 115.915 15.64C115.915 16.04 115.891 16.36 115.843 16.6H105.787C105.835 17.336 106.035 17.984 106.387 18.544C106.755 19.088 107.211 19.52 107.755 19.84C108.315 20.144 108.923 20.296 109.579 20.296C110.283 20.296 110.947 20.12 111.571 19.768C112.195 19.416 112.627 18.952 112.867 18.376L115.123 19.024C114.691 19.968 113.971 20.744 112.963 21.352C111.971 21.944 110.811 22.24 109.483 22.24ZM105.715 14.848H113.299C113.235 14.128 113.027 13.496 112.675 12.952C112.323 12.392 111.867 11.96 111.307 11.656C110.763 11.336 110.155 11.176 109.483 11.176C108.827 11.176 108.219 11.336 107.659 11.656C107.115 11.96 106.667 12.392 106.315 12.952C105.963 13.496 105.763 14.128 105.715 14.848ZM124.022 4.48H126.662V18.376C126.662 19.016 126.758 19.424 126.95 19.6C127.142 19.776 127.382 19.864 127.67 19.864C127.99 19.864 128.294 19.832 128.582 19.768C128.87 19.704 129.11 19.624 129.302 19.528L129.686 21.616C129.302 21.776 128.846 21.912 128.318 22.024C127.79 22.136 127.318 22.192 126.902 22.192C126.006 22.192 125.302 21.944 124.79 21.448C124.278 20.936 124.022 20.232 124.022 19.336V4.48ZM131.217 7.384V4.48H133.857V7.384H131.217ZM131.217 22V9.448H133.857V22H131.217ZM140.533 22L135.757 9.448H138.493L142.069 19.552L145.645 9.448H148.189L143.413 22H140.533ZM157.14 11.728C156.116 11.76 155.204 12 154.404 12.448C153.62 12.88 153.06 13.504 152.724 14.32V22H150.084V9.448H152.532V12.256C152.964 11.392 153.532 10.704 154.236 10.192C154.94 9.664 155.684 9.376 156.468 9.328C156.612 9.328 156.74 9.328 156.852 9.328C156.964 9.328 157.06 9.336 157.14 9.352V11.728ZM164.538 22.24C163.242 22.24 162.106 21.944 161.13 21.352C160.154 20.76 159.394 19.976 158.85 19C158.306 18.008 158.034 16.928 158.034 15.76C158.034 14.576 158.306 13.488 158.85 12.496C159.394 11.504 160.154 10.712 161.13 10.12C162.106 9.528 163.25 9.232 164.562 9.232C165.874 9.232 167.01 9.536 167.97 10.144C168.93 10.736 169.666 11.52 170.178 12.496C170.706 13.472 170.97 14.52 170.97 15.64C170.97 16.04 170.946 16.36 170.898 16.6H160.842C160.89 17.336 161.09 17.984 161.442 18.544C161.81 19.088 162.266 19.52 162.81 19.84C163.37 20.144 163.978 20.296 164.634 20.296C165.338 20.296 166.002 20.12 166.626 19.768C167.25 19.416 167.682 18.952 167.922 18.376L170.178 19.024C169.746 19.968 169.026 20.744 168.018 21.352C167.026 21.944 165.866 22.24 164.538 22.24ZM160.77 14.848H168.354C168.29 14.128 168.082 13.496 167.73 12.952C167.378 12.392 166.922 11.96 166.362 11.656C165.818 11.336 165.21 11.176 164.538 11.176C163.882 11.176 163.274 11.336 162.714 11.656C162.17 11.96 161.722 12.392 161.37 12.952C161.018 13.496 160.818 14.128 160.77 14.848ZM178.381 13.696C178.381 12.064 178.717 10.448 179.389 8.848C180.077 7.248 180.901 5.632 181.861 4L183.901 4.864C183.613 5.28 183.293 5.824 182.941 6.496C182.605 7.168 182.277 7.912 181.957 8.728C181.637 9.544 181.373 10.384 181.165 11.248C180.957 12.112 180.853 12.952 180.853 13.768C180.853 15.032 181.125 16.384 181.669 17.824C182.213 19.248 182.933 20.688 183.829 22.144L181.909 23.128C180.901 21.64 180.061 20.096 179.389 18.496C178.717 16.88 178.381 15.28 178.381 13.696ZM185.195 18.328C185.195 17.528 185.419 16.832 185.867 16.24C186.315 15.632 186.939 15.168 187.739 14.848C188.555 14.512 189.491 14.344 190.547 14.344C191.107 14.344 191.675 14.392 192.251 14.488C192.843 14.568 193.363 14.688 193.811 14.848V14.056C193.811 13.176 193.547 12.488 193.019 11.992C192.491 11.496 191.731 11.248 190.739 11.248C190.051 11.248 189.387 11.368 188.747 11.608C188.107 11.848 187.443 12.2 186.755 12.664L185.867 10.888C186.699 10.344 187.531 9.936 188.363 9.664C189.211 9.376 190.099 9.232 191.027 9.232C192.707 9.232 194.027 9.68 194.987 10.576C195.963 11.456 196.451 12.712 196.451 14.344V19.024C196.451 19.328 196.499 19.544 196.595 19.672C196.707 19.8 196.891 19.872 197.147 19.888V22C196.907 22.048 196.691 22.08 196.499 22.096C196.307 22.112 196.147 22.12 196.019 22.12C195.443 22.12 195.011 21.984 194.723 21.712C194.451 21.424 194.291 21.104 194.243 20.752L194.171 20.032C193.627 20.736 192.931 21.28 192.083 21.664C191.235 22.048 190.379 22.24 189.515 22.24C188.683 22.24 187.939 22.072 187.283 21.736C186.627 21.384 186.115 20.912 185.747 20.32C185.379 19.728 185.195 19.064 185.195 18.328ZM193.187 19.096C193.603 18.68 193.811 18.288 193.811 17.92V16.48C192.867 16.128 191.907 15.952 190.931 15.952C189.971 15.952 189.187 16.152 188.579 16.552C187.987 16.936 187.691 17.456 187.691 18.112C187.691 18.656 187.907 19.16 188.339 19.624C188.787 20.072 189.427 20.296 190.259 20.296C190.819 20.296 191.363 20.184 191.891 19.96C192.419 19.736 192.851 19.448 193.187 19.096ZM218.854 22H216.214V14.968C216.214 13.816 216.022 12.968 215.638 12.424C215.254 11.864 214.694 11.584 213.958 11.584C213.222 11.584 212.534 11.864 211.894 12.424C211.27 12.968 210.83 13.68 210.574 14.56V22H207.934V14.968C207.934 13.784 207.742 12.928 207.358 12.4C206.974 11.856 206.422 11.584 205.702 11.584C204.966 11.584 204.278 11.856 203.638 12.4C203.014 12.944 202.566 13.656 202.294 14.536V22H199.654V9.448H202.054V11.968C202.534 11.088 203.182 10.416 203.998 9.952C204.814 9.472 205.742 9.232 206.782 9.232C207.822 9.232 208.638 9.504 209.23 10.048C209.838 10.592 210.214 11.272 210.358 12.088C211.446 10.184 213.022 9.232 215.086 9.232C216.078 9.232 216.846 9.472 217.39 9.952C217.934 10.416 218.31 11.04 218.518 11.824C218.742 12.592 218.854 13.432 218.854 14.344V22ZM220.985 18.328C220.985 17.528 221.209 16.832 221.657 16.24C222.105 15.632 222.729 15.168 223.529 14.848C224.345 14.512 225.281 14.344 226.337 14.344C226.897 14.344 227.465 14.392 228.041 14.488C228.633 14.568 229.153 14.688 229.601 14.848V14.056C229.601 13.176 229.337 12.488 228.809 11.992C228.281 11.496 227.521 11.248 226.529 11.248C225.841 11.248 225.177 11.368 224.537 11.608C223.897 11.848 223.233 12.2 222.545 12.664L221.657 10.888C222.489 10.344 223.321 9.936 224.153 9.664C225.001 9.376 225.889 9.232 226.817 9.232C228.497 9.232 229.817 9.68 230.777 10.576C231.753 11.456 232.241 12.712 232.241 14.344V19.024C232.241 19.328 232.289 19.544 232.385 19.672C232.497 19.8 232.681 19.872 232.937 19.888V22C232.697 22.048 232.481 22.08 232.289 22.096C232.097 22.112 231.937 22.12 231.809 22.12C231.233 22.12 230.801 21.984 230.513 21.712C230.241 21.424 230.081 21.104 230.033 20.752L229.961 20.032C229.417 20.736 228.721 21.28 227.873 21.664C227.025 22.048 226.169 22.24 225.305 22.24C224.473 22.24 223.729 22.072 223.073 21.736C222.417 21.384 221.905 20.912 221.537 20.32C221.169 19.728 220.985 19.064 220.985 18.328ZM228.977 19.096C229.393 18.68 229.601 18.288 229.601 17.92V16.48C228.657 16.128 227.697 15.952 226.721 15.952C225.761 15.952 224.977 16.152 224.369 16.552C223.777 16.936 223.48 17.456 223.48 18.112C223.48 18.656 223.697 19.16 224.129 19.624C224.577 20.072 225.217 20.296 226.049 20.296C226.609 20.296 227.153 20.184 227.681 19.96C228.209 19.736 228.641 19.448 228.977 19.096ZM234.531 20.344L241.971 11.32H234.795V9.448H244.851V11.104L237.459 20.128H244.923V22H234.531V20.344ZM252.708 22.24C251.396 22.24 250.252 21.944 249.276 21.352C248.316 20.744 247.572 19.952 247.044 18.976C246.516 17.984 246.252 16.904 246.252 15.736C246.252 14.568 246.516 13.496 247.044 12.52C247.588 11.528 248.34 10.736 249.3 10.144C250.276 9.536 251.412 9.232 252.708 9.232C254.004 9.232 255.132 9.536 256.092 10.144C257.068 10.736 257.82 11.528 258.348 12.52C258.892 13.496 259.164 14.568 259.164 15.736C259.164 16.904 258.9 17.984 258.372 18.976C257.844 19.952 257.092 20.744 256.116 21.352C255.156 21.944 254.02 22.24 252.708 22.24ZM248.964 15.76C248.964 16.56 249.132 17.28 249.468 17.92C249.804 18.56 250.252 19.064 250.812 19.432C251.372 19.8 252.004 19.984 252.708 19.984C253.396 19.984 254.02 19.8 254.58 19.432C255.156 19.048 255.612 18.536 255.948 17.896C256.284 17.256 256.452 16.536 256.452 15.736C256.452 14.936 256.284 14.216 255.948 13.576C255.612 12.936 255.156 12.432 254.58 12.064C254.02 11.68 253.396 11.488 252.708 11.488C252.02 11.488 251.388 11.68 250.812 12.064C250.252 12.432 249.804 12.944 249.468 13.6C249.132 14.24 248.964 14.96 248.964 15.76ZM272.762 22H270.122V14.968C270.122 13.784 269.93 12.928 269.546 12.4C269.178 11.856 268.626 11.584 267.89 11.584C267.378 11.584 266.866 11.712 266.354 11.968C265.858 12.224 265.41 12.576 265.01 13.024C264.61 13.472 264.322 13.976 264.146 14.536V22H261.506V9.448H263.906V11.968C264.386 11.136 265.082 10.472 265.994 9.976C266.906 9.48 267.914 9.232 269.018 9.232C270.01 9.232 270.778 9.472 271.322 9.952C271.866 10.416 272.242 11.032 272.45 11.8C272.658 12.568 272.762 13.416 272.762 14.344V22ZM287.396 22.24C286.084 22.24 284.94 21.944 283.964 21.352C283.004 20.744 282.26 19.952 281.732 18.976C281.204 17.984 280.94 16.904 280.94 15.736C280.94 14.568 281.204 13.496 281.732 12.52C282.276 11.528 283.028 10.736 283.988 10.144C284.964 9.536 286.1 9.232 287.396 9.232C288.692 9.232 289.82 9.536 290.78 10.144C291.756 10.736 292.508 11.528 293.036 12.52C293.58 13.496 293.852 14.568 293.852 15.736C293.852 16.904 293.588 17.984 293.06 18.976C292.532 19.952 291.78 20.744 290.804 21.352C289.844 21.944 288.708 22.24 287.396 22.24ZM283.652 15.76C283.652 16.56 283.82 17.28 284.156 17.92C284.492 18.56 284.94 19.064 285.5 19.432C286.06 19.8 286.692 19.984 287.396 19.984C288.084 19.984 288.708 19.8 289.268 19.432C289.844 19.048 290.3 18.536 290.636 17.896C290.972 17.256 291.14 16.536 291.14 15.736C291.14 14.936 290.972 14.216 290.636 13.576C290.3 12.936 289.844 12.432 289.268 12.064C288.708 11.68 288.084 11.488 287.396 11.488C286.708 11.488 286.076 11.68 285.5 12.064C284.94 12.432 284.492 12.944 284.156 13.6C283.82 14.24 283.652 14.96 283.652 15.76ZM296.073 17.128V9.448H298.713V16.6C298.713 18.856 299.513 19.984 301.113 19.984C301.865 19.984 302.577 19.752 303.249 19.288C303.921 18.808 304.441 18.136 304.809 17.272V9.448H307.449V19.024C307.449 19.328 307.505 19.544 307.617 19.672C307.729 19.8 307.913 19.872 308.169 19.888V22C307.897 22.048 307.673 22.08 307.497 22.096C307.321 22.112 307.153 22.12 306.993 22.12C306.513 22.12 306.113 21.992 305.793 21.736C305.473 21.48 305.289 21.136 305.241 20.704L305.193 19.456C304.633 20.368 303.905 21.064 303.009 21.544C302.113 22.008 301.129 22.24 300.057 22.24C298.745 22.24 297.753 21.808 297.081 20.944C296.409 20.08 296.073 18.808 296.073 17.128ZM2.304 50V39.8H0.624V37.76H2.304V37.256C2.304 35.72 2.664 34.504 3.384 33.608C4.12 32.696 5.096 32.24 6.312 32.24C7.336 32.24 8.312 32.496 9.24 33.008L8.664 34.976C8.424 34.832 8.136 34.712 7.8 34.616C7.48 34.52 7.168 34.472 6.864 34.472C6.24 34.472 5.76 34.704 5.424 35.168C5.104 35.632 4.944 36.304 4.944 37.184V37.76H8.16V39.8H4.944V50H2.304ZM21.3947 50H18.7547V42.968C18.7547 41.784 18.5627 40.928 18.1787 40.4C17.8107 39.856 17.2587 39.584 16.5227 39.584C16.0107 39.584 15.4987 39.712 14.9867 39.968C14.4907 40.224 14.0427 40.576 13.6427 41.024C13.2427 41.472 12.9547 41.976 12.7787 42.536V50H10.1387V37.448H12.5387V39.968C13.0187 39.136 13.7147 38.472 14.6267 37.976C15.5387 37.48 16.5467 37.232 17.6507 37.232C18.6427 37.232 19.4107 37.472 19.9547 37.952C20.4987 38.416 20.8747 39.032 21.0827 39.8C21.2907 40.568 21.3947 41.416 21.3947 42.344V50ZM23.547 46.328C23.547 45.528 23.771 44.832 24.219 44.24C24.667 43.632 25.291 43.168 26.091 42.848C26.907 42.512 27.843 42.344 28.899 42.344C29.459 42.344 30.027 42.392 30.603 42.488C31.195 42.568 31.715 42.688 32.163 42.848V42.056C32.163 41.176 31.899 40.488 31.371 39.992C30.843 39.496 30.083 39.248 29.091 39.248C28.403 39.248 27.739 39.368 27.099 39.608C26.459 39.848 25.795 40.2 25.107 40.664L24.219 38.888C25.051 38.344 25.883 37.936 26.715 37.664C27.563 37.376 28.451 37.232 29.379 37.232C31.059 37.232 32.379 37.68 33.339 38.576C34.315 39.456 34.803 40.712 34.803 42.344V47.024C34.803 47.328 34.851 47.544 34.947 47.672C35.059 47.8 35.243 47.872 35.499 47.888V50C35.259 50.048 35.043 50.08 34.851 50.096C34.659 50.112 34.499 50.12 34.371 50.12C33.795 50.12 33.363 49.984 33.075 49.712C32.803 49.424 32.643 49.104 32.595 48.752L32.523 48.032C31.979 48.736 31.283 49.28 30.435 49.664C29.587 50.048 28.731 50.24 27.867 50.24C27.035 50.24 26.291 50.072 25.635 49.736C24.979 49.384 24.467 48.912 24.099 48.32C23.731 47.728 23.547 47.064 23.547 46.328ZM31.539 47.096C31.955 46.68 32.163 46.288 32.163 45.92V44.48C31.219 44.128 30.259 43.952 29.283 43.952C28.323 43.952 27.539 44.152 26.931 44.552C26.339 44.936 26.043 45.456 26.043 46.112C26.043 46.656 26.259 47.16 26.691 47.624C27.139 48.072 27.779 48.296 28.611 48.296C29.171 48.296 29.715 48.184 30.243 47.96C30.771 47.736 31.203 47.448 31.539 47.096ZM43.6939 50.24C42.3979 50.24 41.2619 49.944 40.2859 49.352C39.3099 48.744 38.5499 47.944 38.0059 46.952C37.4619 45.96 37.1899 44.88 37.1899 43.712C37.1899 42.544 37.4539 41.472 37.9819 40.496C38.5259 39.504 39.2779 38.712 40.2379 38.12C41.2139 37.528 42.3659 37.232 43.6939 37.232C44.9899 37.232 46.1019 37.52 47.0299 38.096C47.9739 38.656 48.6779 39.408 49.1419 40.352L46.5739 41.168C46.2859 40.64 45.8779 40.232 45.3499 39.944C44.8379 39.64 44.2699 39.488 43.6459 39.488C42.9419 39.488 42.3019 39.672 41.7259 40.04C41.1659 40.392 40.7179 40.888 40.3819 41.528C40.0619 42.168 39.9019 42.896 39.9019 43.712C39.9019 44.528 40.0699 45.256 40.4059 45.896C40.7579 46.536 41.2139 47.048 41.7739 47.432C42.3499 47.8 42.9819 47.984 43.6699 47.984C44.3099 47.984 44.9179 47.816 45.4939 47.48C46.0699 47.144 46.4539 46.736 46.6459 46.256L49.2379 47.024C48.8219 47.968 48.1259 48.744 47.1499 49.352C46.1739 49.944 45.0219 50.24 43.6939 50.24ZM55.9961 41.696C55.9961 43.28 55.6601 44.88 54.9881 46.496C54.3321 48.096 53.5001 49.64 52.4921 51.128L50.5481 50.144C51.4441 48.688 52.1641 47.248 52.7081 45.824C53.2681 44.384 53.5481 43.032 53.5481 41.768C53.5481 40.952 53.4441 40.112 53.2361 39.248C53.0281 38.384 52.7641 37.544 52.4441 36.728C52.1241 35.912 51.7881 35.168 51.4361 34.496C51.0841 33.824 50.7721 33.28 50.5001 32.864L52.5161 32C53.4921 33.632 54.3161 35.248 54.9881 36.848C55.6601 38.448 55.9961 40.064 55.9961 41.696Z" fill="#685854"/>
<g clip-path="url(#clip0_704_961)">
<path d="M86.2 58.7731L99.52 45.6301C99.7675 45.388 99.9642 45.0989 100.098 44.7797C100.233 44.4606 100.302 44.1178 100.302 43.7716C100.302 43.4254 100.233 43.0826 100.098 42.7635C99.9642 42.4443 99.7675 42.1552 99.52 41.9131L86.2 28.7701C85.6973 28.2767 85.021 28.0002 84.3165 28.0002C83.6121 28.0002 82.9358 28.2767 82.433 28.7701C82.1855 29.0122 81.9889 29.3013 81.8547 29.6205C81.7204 29.9396 81.6513 30.2824 81.6513 30.6286C81.6513 30.9748 81.7204 31.3176 81.8547 31.6367C81.9889 31.9558 82.1855 32.245 82.433 32.4871L91.2 41.1431H65.664C65.3145 41.1363 64.9672 41.1992 64.6423 41.3283C64.3175 41.4573 64.0216 41.6498 63.772 41.8946C63.5224 42.1393 63.3242 42.4314 63.1888 42.7537C63.0535 43.076 62.9838 43.422 62.9838 43.7716C62.9838 44.1212 63.0535 44.4672 63.1888 44.7895C63.3242 45.1118 63.5224 45.4039 63.772 45.6486C64.0216 45.8934 64.3175 46.0859 64.6423 46.2149C64.9672 46.344 65.3145 46.4069 65.664 46.4001H91.2L82.426 55.0561C82.1785 55.2982 81.9819 55.5873 81.8477 55.9065C81.7134 56.2256 81.6443 56.5684 81.6443 56.9146C81.6443 57.2608 81.7134 57.6036 81.8477 57.9227C81.9819 58.2418 82.1785 58.531 82.426 58.7731C82.9288 59.2665 83.6051 59.5429 84.3095 59.5429C85.014 59.5429 85.6903 59.2665 86.193 58.7731H86.2Z" fill="#FFBE00"/>
</g>
<defs>
<clipPath id="clip0_704_961">
<rect width="37.3" height="31.542" fill="white" transform="translate(63 28)"/>
</clipPath>
</defs>
</svg>
