<svg width="197" height="96" viewBox="0 0 197 96" fill="none" xmlns="http://www.w3.org/2000/svg">
<g clip-path="url(#clip0_700_959)">
<path d="M93.2 94.773L106.52 81.63C106.767 81.3878 106.964 81.0987 107.098 80.7796C107.233 80.4604 107.302 80.1177 107.302 79.7715C107.302 79.4252 107.233 79.0825 107.098 78.7634C106.964 78.4442 106.767 78.1551 106.52 77.913L93.2 64.77C92.6972 64.2766 92.0209 64.0001 91.3165 64.0001C90.6121 64.0001 89.9358 64.2766 89.433 64.77C89.1855 65.0121 88.9889 65.3012 88.8546 65.6204C88.7204 65.9395 88.6512 66.2822 88.6512 66.6285C88.6512 66.9747 88.7204 67.3174 88.8546 67.6366C88.9889 67.9557 89.1855 68.2448 89.433 68.487L98.2 77.143H72.664C72.3145 77.1362 71.9672 77.1991 71.6423 77.3281C71.3174 77.4572 71.0215 77.6497 70.772 77.8944C70.5224 78.1392 70.3241 78.4313 70.1888 78.7536C70.0534 79.0759 69.9837 79.4219 69.9837 79.7715C69.9837 80.121 70.0534 80.4671 70.1888 80.7894C70.3241 81.1117 70.5224 81.4037 70.772 81.6485C71.0215 81.8932 71.3174 82.0858 71.6423 82.2148C71.9672 82.3438 72.3145 82.4068 72.664 82.4H98.2L89.426 91.056C89.1785 91.2981 88.9819 91.5872 88.8476 91.9064C88.7134 92.2255 88.6442 92.5682 88.6442 92.9145C88.6442 93.2607 88.7134 93.6034 88.8476 93.9226C88.9819 94.2417 89.1785 94.5308 89.426 94.773C89.9288 95.2664 90.6051 95.5428 91.3095 95.5428C92.0139 95.5428 92.6902 95.2664 93.193 94.773H93.2Z" fill="#FFBE00"/>
</g>
<path d="M6.408 4.96H9.768L16.032 22H12.624L11.04 17.752H5.088L3.528 22H0.12L6.408 4.96ZM10.44 15.424L8.088 8.392L5.64 15.424H10.44ZM23.07 22.24C21.71 22.24 20.534 21.936 19.542 21.328C18.55 20.72 17.782 19.92 17.238 18.928C16.694 17.936 16.422 16.864 16.422 15.712C16.422 14.544 16.686 13.464 17.214 12.472C17.758 11.48 18.526 10.688 19.518 10.096C20.51 9.504 21.686 9.208 23.046 9.208C24.422 9.208 25.59 9.504 26.55 10.096C27.526 10.688 28.254 11.464 28.734 12.424L25.59 13.384C25.03 12.424 24.174 11.944 23.022 11.944C22.398 11.944 21.838 12.104 21.342 12.424C20.846 12.728 20.454 13.168 20.166 13.744C19.878 14.304 19.734 14.96 19.734 15.712C19.734 16.448 19.878 17.104 20.166 17.68C20.47 18.24 20.87 18.688 21.366 19.024C21.862 19.344 22.414 19.504 23.022 19.504C23.598 19.504 24.126 19.368 24.606 19.096C25.102 18.808 25.446 18.448 25.638 18.016L28.782 18.976C28.35 19.92 27.63 20.704 26.622 21.328C25.63 21.936 24.446 22.24 23.07 22.24ZM42.4489 22H39.2329V14.944C39.2329 13.968 39.0409 13.24 38.6569 12.76C38.2889 12.28 37.7769 12.04 37.1209 12.04C36.7209 12.04 36.3049 12.152 35.8729 12.376C35.4569 12.6 35.0729 12.912 34.7209 13.312C34.3849 13.696 34.1369 14.144 33.9769 14.656V22H30.7609V4.48H33.9769V11.752C34.4409 10.952 35.0729 10.328 35.8729 9.88C36.6729 9.432 37.5449 9.208 38.4889 9.208C39.5609 9.208 40.3849 9.448 40.9609 9.928C41.5369 10.408 41.9289 11.024 42.1369 11.776C42.3449 12.528 42.4489 13.32 42.4489 14.152V22ZM51.0773 22.24C49.7173 22.24 48.5413 21.944 47.5493 21.352C46.5733 20.76 45.8133 19.976 45.2693 19C44.7253 18.008 44.4533 16.936 44.4533 15.784C44.4533 14.6 44.7173 13.512 45.2453 12.52C45.7893 11.512 46.5573 10.712 47.5493 10.12C48.5413 9.512 49.7253 9.208 51.1013 9.208C52.4773 9.208 53.6533 9.512 54.6293 10.12C55.6053 10.712 56.3493 11.504 56.8613 12.496C57.3893 13.472 57.6533 14.528 57.6533 15.664C57.6533 16.08 57.6293 16.44 57.5813 16.744H47.8613C47.9413 17.72 48.3013 18.488 48.9413 19.048C49.5973 19.608 50.3493 19.888 51.1973 19.888C51.8373 19.888 52.4373 19.736 52.9973 19.432C53.5733 19.112 53.9653 18.696 54.1733 18.184L56.9333 18.952C56.4693 19.912 55.7253 20.704 54.7013 21.328C53.6773 21.936 52.4693 22.24 51.0773 22.24ZM47.7893 14.704H54.3653C54.2693 13.76 53.9093 13 53.2853 12.424C52.6773 11.832 51.9333 11.536 51.0533 11.536C50.1893 11.536 49.4453 11.832 48.8213 12.424C48.2133 13 47.8693 13.76 47.7893 14.704ZM67.0313 21.352C66.5993 21.544 66.0633 21.736 65.4233 21.928C64.7993 22.12 64.1513 22.216 63.4793 22.216C62.8873 22.216 62.3433 22.112 61.8473 21.904C61.3513 21.696 60.9513 21.368 60.6473 20.92C60.3593 20.456 60.2153 19.856 60.2153 19.12V11.896H58.5593V9.424H60.2153V5.344H63.4313V9.424H66.0713V11.896H63.4313V18.04C63.4313 18.472 63.5433 18.784 63.7673 18.976C64.0073 19.168 64.2953 19.264 64.6313 19.264C64.9673 19.264 65.2953 19.208 65.6153 19.096C65.9353 18.984 66.1913 18.888 66.3833 18.808L67.0313 21.352ZM74.3741 22.24C73.0141 22.24 71.8381 21.944 70.8461 21.352C69.8701 20.76 69.1101 19.976 68.5661 19C68.0221 18.008 67.7501 16.936 67.7501 15.784C67.7501 14.6 68.0141 13.512 68.5421 12.52C69.0861 11.512 69.8541 10.712 70.8461 10.12C71.8381 9.512 73.0221 9.208 74.3981 9.208C75.7741 9.208 76.9501 9.512 77.9261 10.12C78.9021 10.712 79.6461 11.504 80.1581 12.496C80.6861 13.472 80.9501 14.528 80.9501 15.664C80.9501 16.08 80.9261 16.44 80.8781 16.744H71.1581C71.2381 17.72 71.5981 18.488 72.2381 19.048C72.8941 19.608 73.6461 19.888 74.4941 19.888C75.1341 19.888 75.7341 19.736 76.2941 19.432C76.8701 19.112 77.2621 18.696 77.4701 18.184L80.2301 18.952C79.7661 19.912 79.0221 20.704 77.9981 21.328C76.9741 21.936 75.7661 22.24 74.3741 22.24ZM71.0861 14.704H77.6621C77.5661 13.76 77.2061 13 76.5821 12.424C75.9741 11.832 75.2301 11.536 74.3501 11.536C73.4861 11.536 72.7421 11.832 72.1181 12.424C71.5101 13 71.1661 13.76 71.0861 14.704ZM90.3973 12.208C89.4213 12.208 88.5493 12.4 87.7813 12.784C87.0133 13.152 86.4613 13.688 86.1253 14.392V22H82.9093V9.424H85.8613V12.112C86.2933 11.248 86.8533 10.568 87.5413 10.072C88.2453 9.576 88.9813 9.304 89.7493 9.256C90.0853 9.256 90.3013 9.264 90.3973 9.28V12.208ZM97.3931 4.48H100.609V17.968C100.609 18.56 100.705 18.952 100.897 19.144C101.089 19.336 101.353 19.432 101.689 19.432C101.945 19.432 102.209 19.4 102.481 19.336C102.753 19.272 102.993 19.192 103.201 19.096L103.633 21.544C103.201 21.752 102.697 21.912 102.121 22.024C101.545 22.136 101.025 22.192 100.561 22.192C99.5531 22.192 98.7691 21.928 98.2091 21.4C97.6651 20.856 97.3931 20.088 97.3931 19.096V4.48ZM110.866 22.24C109.506 22.24 108.33 21.944 107.338 21.352C106.362 20.76 105.602 19.976 105.058 19C104.514 18.008 104.242 16.936 104.242 15.784C104.242 14.6 104.506 13.512 105.034 12.52C105.578 11.512 106.346 10.712 107.338 10.12C108.33 9.512 109.514 9.208 110.89 9.208C112.266 9.208 113.442 9.512 114.418 10.12C115.394 10.712 116.138 11.504 116.65 12.496C117.178 13.472 117.442 14.528 117.442 15.664C117.442 16.08 117.418 16.44 117.37 16.744H107.65C107.73 17.72 108.09 18.488 108.73 19.048C109.386 19.608 110.138 19.888 110.986 19.888C111.626 19.888 112.226 19.736 112.786 19.432C113.362 19.112 113.754 18.696 113.962 18.184L116.722 18.952C116.258 19.912 115.514 20.704 114.49 21.328C113.466 21.936 112.258 22.24 110.866 22.24ZM107.578 14.704H114.154C114.058 13.76 113.698 13 113.074 12.424C112.466 11.832 111.722 11.536 110.842 11.536C109.978 11.536 109.234 11.832 108.61 12.424C108.002 13 107.658 13.76 107.578 14.704ZM125.479 22V4.96H131.671C133.527 4.96 135.079 5.344 136.327 6.112C137.575 6.864 138.511 7.888 139.135 9.184C139.759 10.464 140.071 11.888 140.071 13.456C140.071 15.184 139.727 16.688 139.039 17.968C138.351 19.248 137.375 20.24 136.111 20.944C134.847 21.648 133.367 22 131.671 22H125.479ZM136.735 13.456C136.735 12.352 136.535 11.384 136.135 10.552C135.735 9.704 135.159 9.048 134.407 8.584C133.655 8.104 132.743 7.864 131.671 7.864H128.791V19.096H131.671C132.759 19.096 133.679 18.856 134.431 18.376C135.183 17.88 135.751 17.208 136.135 16.36C136.535 15.496 136.735 14.528 136.735 13.456ZM143.778 4.96L148.386 18.064L152.946 4.96H156.426L149.97 22H146.778L140.298 4.96H143.778ZM158.245 22V4.96H164.437C166.293 4.96 167.845 5.344 169.093 6.112C170.341 6.864 171.277 7.888 171.901 9.184C172.525 10.464 172.837 11.888 172.837 13.456C172.837 15.184 172.493 16.688 171.805 17.968C171.117 19.248 170.141 20.24 168.877 20.944C167.613 21.648 166.133 22 164.437 22H158.245ZM169.501 13.456C169.501 12.352 169.301 11.384 168.901 10.552C168.501 9.704 167.925 9.048 167.173 8.584C166.421 8.104 165.509 7.864 164.437 7.864H161.557V19.096H164.437C165.525 19.096 166.445 18.856 167.197 18.376C167.949 17.88 168.517 17.208 168.901 16.36C169.301 15.496 169.501 14.528 169.501 13.456ZM0.816 41.672C0.816 40.04 1.16 38.416 1.848 36.8C2.536 35.184 3.384 33.528 4.392 31.832L6.84 32.864C6.6 33.248 6.304 33.768 5.952 34.424C5.616 35.08 5.28 35.824 4.944 36.656C4.624 37.472 4.352 38.32 4.128 39.2C3.92 40.08 3.816 40.928 3.816 41.744C3.816 43.024 4.088 44.368 4.632 45.776C5.192 47.168 5.904 48.608 6.768 50.096L4.416 51.272C3.76 50.28 3.16 49.256 2.616 48.2C2.072 47.128 1.632 46.048 1.296 44.96C0.976 43.856 0.816 42.76 0.816 41.672ZM7.9125 46.28C7.9125 45.464 8.1365 44.752 8.5845 44.144C9.0485 43.52 9.6885 43.04 10.5045 42.704C11.3205 42.368 12.2565 42.2 13.3125 42.2C13.8405 42.2 14.3765 42.248 14.9205 42.344C15.4645 42.424 15.9365 42.544 16.3365 42.704V42.032C16.3365 41.232 16.0965 40.616 15.6165 40.184C15.1525 39.752 14.4565 39.536 13.5285 39.536C12.8405 39.536 12.1845 39.656 11.5605 39.896C10.9365 40.136 10.2805 40.488 9.5925 40.952L8.5605 38.84C9.3925 38.296 10.2405 37.888 11.1045 37.616C11.9845 37.344 12.9045 37.208 13.8645 37.208C15.6565 37.208 17.0485 37.656 18.0405 38.552C19.0485 39.448 19.5525 40.728 19.5525 42.392V46.4C19.5525 46.752 19.6085 47 19.7205 47.144C19.8325 47.272 20.0325 47.352 20.3205 47.384V50C20.0325 50.064 19.7685 50.104 19.5285 50.12C19.3045 50.152 19.1125 50.168 18.9525 50.168C18.3125 50.168 17.8245 50.024 17.4885 49.736C17.1525 49.448 16.9525 49.096 16.8885 48.68L16.8165 48.032C16.2565 48.752 15.5685 49.304 14.7525 49.688C13.9525 50.056 13.1285 50.24 12.2805 50.24C11.4325 50.24 10.6805 50.072 10.0245 49.736C9.3685 49.384 8.8485 48.912 8.4645 48.32C8.0965 47.712 7.9125 47.032 7.9125 46.28ZM15.7365 46.928C16.1365 46.544 16.3365 46.176 16.3365 45.824V44.552C15.5045 44.216 14.6645 44.048 13.8165 44.048C12.9685 44.048 12.2805 44.232 11.7525 44.6C11.2245 44.952 10.9605 45.424 10.9605 46.016C10.9605 46.496 11.1525 46.928 11.5365 47.312C11.9205 47.696 12.4725 47.888 13.1925 47.888C13.6725 47.888 14.1365 47.8 14.5845 47.624C15.0485 47.448 15.4325 47.216 15.7365 46.928ZM42.0938 50H38.8778V42.944C38.8778 41.952 38.7018 41.224 38.3498 40.76C38.0138 40.28 37.5418 40.04 36.9338 40.04C36.2938 40.04 35.6938 40.288 35.1338 40.784C34.5738 41.264 34.1738 41.896 33.9338 42.68V50H30.7178V42.944C30.7178 41.936 30.5418 41.2 30.1898 40.736C29.8538 40.272 29.3818 40.04 28.7738 40.04C28.1498 40.04 27.5498 40.28 26.9738 40.76C26.4138 41.24 26.0138 41.872 25.7738 42.656V50H22.5578V37.424H25.4618V39.752C25.9258 38.936 26.5578 38.312 27.3578 37.88C28.1738 37.432 29.1018 37.208 30.1418 37.208C31.1818 37.208 31.9898 37.464 32.5658 37.976C33.1578 38.488 33.5338 39.12 33.6938 39.872C34.1898 39.008 34.8378 38.352 35.6378 37.904C36.4378 37.44 37.3338 37.208 38.3258 37.208C39.1098 37.208 39.7418 37.352 40.2218 37.64C40.7178 37.912 41.1018 38.288 41.3738 38.768C41.6458 39.232 41.8298 39.76 41.9258 40.352C42.0378 40.944 42.0938 41.544 42.0938 42.152V50ZM44.0297 46.28C44.0297 45.464 44.2537 44.752 44.7017 44.144C45.1657 43.52 45.8057 43.04 46.6217 42.704C47.4377 42.368 48.3737 42.2 49.4297 42.2C49.9577 42.2 50.4937 42.248 51.0377 42.344C51.5817 42.424 52.0537 42.544 52.4537 42.704V42.032C52.4537 41.232 52.2137 40.616 51.7337 40.184C51.2697 39.752 50.5737 39.536 49.6457 39.536C48.9577 39.536 48.3017 39.656 47.6777 39.896C47.0537 40.136 46.3977 40.488 45.7097 40.952L44.6777 38.84C45.5097 38.296 46.3577 37.888 47.2217 37.616C48.1017 37.344 49.0217 37.208 49.9817 37.208C51.7737 37.208 53.1657 37.656 54.1577 38.552C55.1657 39.448 55.6697 40.728 55.6697 42.392V46.4C55.6697 46.752 55.7257 47 55.8377 47.144C55.9497 47.272 56.1497 47.352 56.4377 47.384V50C56.1497 50.064 55.8857 50.104 55.6457 50.12C55.4217 50.152 55.2297 50.168 55.0697 50.168C54.4297 50.168 53.9417 50.024 53.6057 49.736C53.2697 49.448 53.0697 49.096 53.0057 48.68L52.9337 48.032C52.3737 48.752 51.6857 49.304 50.8697 49.688C50.0697 50.056 49.2457 50.24 48.3977 50.24C47.5497 50.24 46.7977 50.072 46.1417 49.736C45.4857 49.384 44.9657 48.912 44.5817 48.32C44.2137 47.712 44.0297 47.032 44.0297 46.28ZM51.8537 46.928C52.2537 46.544 52.4537 46.176 52.4537 45.824V44.552C51.6217 44.216 50.7817 44.048 49.9337 44.048C49.0857 44.048 48.3977 44.232 47.8697 44.6C47.3417 44.952 47.0777 45.424 47.0777 46.016C47.0777 46.496 47.2697 46.928 47.6537 47.312C48.0377 47.696 48.5897 47.888 49.3097 47.888C49.7897 47.888 50.2537 47.8 50.7017 47.624C51.1657 47.448 51.5497 47.216 51.8537 46.928ZM57.8349 48.032L64.7709 39.68H58.1229V37.424H68.2269V39.392L61.3389 47.744H68.3469V50H57.8349V48.032ZM76.1079 50.24C74.7319 50.24 73.5479 49.944 72.5559 49.352C71.5799 48.744 70.8279 47.944 70.2999 46.952C69.7719 45.96 69.5079 44.888 69.5079 43.736C69.5079 42.568 69.7719 41.488 70.2999 40.496C70.8439 39.504 71.6039 38.712 72.5799 38.12C73.5719 37.512 74.7479 37.208 76.1079 37.208C77.4679 37.208 78.6359 37.512 79.6119 38.12C80.6039 38.712 81.3639 39.504 81.8919 40.496C82.4199 41.488 82.6839 42.568 82.6839 43.736C82.6839 44.888 82.4199 45.96 81.8919 46.952C81.3639 47.944 80.6039 48.744 79.6119 49.352C78.6359 49.944 77.4679 50.24 76.1079 50.24ZM72.8199 43.736C72.8199 44.472 72.9639 45.128 73.2519 45.704C73.5399 46.264 73.9319 46.704 74.4279 47.024C74.9239 47.344 75.4839 47.504 76.1079 47.504C76.7159 47.504 77.2679 47.344 77.7639 47.024C78.2599 46.688 78.6519 46.24 78.9399 45.68C79.2439 45.104 79.3959 44.448 79.3959 43.712C79.3959 42.992 79.2439 42.352 78.9399 41.792C78.6519 41.216 78.2599 40.768 77.7639 40.448C77.2679 40.112 76.7159 39.944 76.1079 39.944C75.4839 39.944 74.9239 40.112 74.4279 40.448C73.9319 40.768 73.5399 41.216 73.2519 41.792C72.9639 42.352 72.8199 43 72.8199 43.736ZM96.5426 50H93.3266V42.944C93.3266 41.936 93.1506 41.2 92.7986 40.736C92.4466 40.272 91.9586 40.04 91.3346 40.04C90.9026 40.04 90.4626 40.152 90.0146 40.376C89.5826 40.6 89.1906 40.912 88.8386 41.312C88.4866 41.696 88.2306 42.144 88.0706 42.656V50H84.8546V37.424H87.7586V39.752C88.2226 38.968 88.8946 38.352 89.7746 37.904C90.6546 37.44 91.6466 37.208 92.7506 37.208C93.5346 37.208 94.1746 37.352 94.6706 37.64C95.1666 37.912 95.5506 38.288 95.8226 38.768C96.0946 39.232 96.2786 39.76 96.3746 40.352C96.4866 40.944 96.5426 41.544 96.5426 42.152V50ZM110.913 50.24C109.537 50.24 108.353 49.944 107.361 49.352C106.385 48.744 105.633 47.944 105.105 46.952C104.577 45.96 104.313 44.888 104.313 43.736C104.313 42.568 104.577 41.488 105.105 40.496C105.649 39.504 106.409 38.712 107.385 38.12C108.377 37.512 109.553 37.208 110.913 37.208C112.273 37.208 113.441 37.512 114.417 38.12C115.409 38.712 116.169 39.504 116.697 40.496C117.225 41.488 117.489 42.568 117.489 43.736C117.489 44.888 117.225 45.96 116.697 46.952C116.169 47.944 115.409 48.744 114.417 49.352C113.441 49.944 112.273 50.24 110.913 50.24ZM107.625 43.736C107.625 44.472 107.769 45.128 108.057 45.704C108.345 46.264 108.737 46.704 109.233 47.024C109.729 47.344 110.289 47.504 110.913 47.504C111.521 47.504 112.073 47.344 112.569 47.024C113.065 46.688 113.457 46.24 113.745 45.68C114.049 45.104 114.201 44.448 114.201 43.712C114.201 42.992 114.049 42.352 113.745 41.792C113.457 41.216 113.065 40.768 112.569 40.448C112.073 40.112 111.521 39.944 110.913 39.944C110.289 39.944 109.729 40.112 109.233 40.448C108.737 40.768 108.345 41.216 108.057 41.792C107.769 42.352 107.625 43 107.625 43.736ZM119.539 45.296V37.424H122.755V44.6C122.755 46.536 123.451 47.504 124.843 47.504C125.467 47.504 126.067 47.32 126.643 46.952C127.235 46.568 127.715 45.992 128.083 45.224V37.424H131.299V46.4C131.299 46.752 131.355 47 131.467 47.144C131.579 47.272 131.779 47.352 132.067 47.384V50C131.747 50.064 131.475 50.104 131.251 50.12C131.043 50.136 130.851 50.144 130.675 50.144C130.099 50.144 129.627 50.016 129.259 49.76C128.907 49.488 128.699 49.12 128.635 48.656L128.563 47.648C128.003 48.512 127.283 49.16 126.403 49.592C125.523 50.024 124.555 50.24 123.499 50.24C122.203 50.24 121.219 49.824 120.547 48.992C119.875 48.144 119.539 46.912 119.539 45.296ZM141.029 50V40.544H139.373V38.096H141.029V37.328C141.029 35.776 141.405 34.544 142.157 33.632C142.925 32.704 143.949 32.24 145.229 32.24C146.253 32.24 147.285 32.488 148.325 32.984L147.677 35.408C147.437 35.28 147.149 35.176 146.813 35.096C146.493 35 146.197 34.952 145.925 34.952C144.805 34.952 144.245 35.704 144.245 37.208V38.096H147.317V40.544H144.245V50H141.029ZM160.832 50H157.616V42.944C157.616 41.936 157.44 41.2 157.088 40.736C156.736 40.272 156.248 40.04 155.624 40.04C155.192 40.04 154.752 40.152 154.304 40.376C153.872 40.6 153.48 40.912 153.128 41.312C152.776 41.696 152.52 42.144 152.36 42.656V50H149.144V37.424H152.048V39.752C152.512 38.968 153.184 38.352 154.064 37.904C154.944 37.44 155.936 37.208 157.04 37.208C157.824 37.208 158.464 37.352 158.96 37.64C159.456 37.912 159.84 38.288 160.112 38.768C160.384 39.232 160.568 39.76 160.664 40.352C160.776 40.944 160.832 41.544 160.832 42.152V50ZM162.764 46.28C162.764 45.464 162.988 44.752 163.436 44.144C163.9 43.52 164.54 43.04 165.356 42.704C166.172 42.368 167.108 42.2 168.164 42.2C168.692 42.2 169.228 42.248 169.772 42.344C170.316 42.424 170.788 42.544 171.188 42.704V42.032C171.188 41.232 170.948 40.616 170.468 40.184C170.004 39.752 169.308 39.536 168.38 39.536C167.692 39.536 167.036 39.656 166.412 39.896C165.788 40.136 165.132 40.488 164.444 40.952L163.412 38.84C164.244 38.296 165.092 37.888 165.956 37.616C166.836 37.344 167.756 37.208 168.716 37.208C170.508 37.208 171.9 37.656 172.892 38.552C173.9 39.448 174.404 40.728 174.404 42.392V46.4C174.404 46.752 174.46 47 174.572 47.144C174.684 47.272 174.884 47.352 175.172 47.384V50C174.884 50.064 174.62 50.104 174.38 50.12C174.156 50.152 173.964 50.168 173.804 50.168C173.164 50.168 172.676 50.024 172.34 49.736C172.004 49.448 171.804 49.096 171.74 48.68L171.668 48.032C171.108 48.752 170.42 49.304 169.604 49.688C168.804 50.056 167.98 50.24 167.132 50.24C166.284 50.24 165.532 50.072 164.876 49.736C164.22 49.384 163.7 48.912 163.316 48.32C162.948 47.712 162.764 47.032 162.764 46.28ZM170.588 46.928C170.988 46.544 171.188 46.176 171.188 45.824V44.552C170.356 44.216 169.516 44.048 168.668 44.048C167.82 44.048 167.132 44.232 166.604 44.6C166.076 44.952 165.812 45.424 165.812 46.016C165.812 46.496 166.004 46.928 166.388 47.312C166.772 47.696 167.324 47.888 168.044 47.888C168.524 47.888 168.988 47.8 169.436 47.624C169.9 47.448 170.284 47.216 170.588 46.928ZM183.265 50.24C181.905 50.24 180.729 49.936 179.737 49.328C178.745 48.72 177.977 47.92 177.433 46.928C176.889 45.936 176.617 44.864 176.617 43.712C176.617 42.544 176.881 41.464 177.409 40.472C177.953 39.48 178.721 38.688 179.713 38.096C180.705 37.504 181.881 37.208 183.241 37.208C184.617 37.208 185.785 37.504 186.745 38.096C187.721 38.688 188.449 39.464 188.929 40.424L185.785 41.384C185.225 40.424 184.369 39.944 183.217 39.944C182.593 39.944 182.033 40.104 181.537 40.424C181.041 40.728 180.649 41.168 180.361 41.744C180.073 42.304 179.929 42.96 179.929 43.712C179.929 44.448 180.073 45.104 180.361 45.68C180.665 46.24 181.065 46.688 181.561 47.024C182.057 47.344 182.609 47.504 183.217 47.504C183.793 47.504 184.321 47.368 184.801 47.096C185.297 46.808 185.641 46.448 185.833 46.016L188.977 46.976C188.545 47.92 187.825 48.704 186.817 49.328C185.825 49.936 184.641 50.24 183.265 50.24ZM196.092 41.672C196.092 42.76 195.932 43.856 195.612 44.96C195.292 46.048 194.86 47.128 194.316 48.2C193.772 49.256 193.164 50.28 192.492 51.272L190.14 50.096C191.02 48.608 191.732 47.168 192.276 45.776C192.82 44.368 193.092 43.024 193.092 41.744C193.092 40.928 192.98 40.08 192.756 39.2C192.548 38.32 192.276 37.472 191.94 36.656C191.62 35.824 191.292 35.08 190.956 34.424C190.62 33.768 190.324 33.248 190.068 32.864L192.54 31.832C193.532 33.528 194.372 35.184 195.06 36.8C195.748 38.416 196.092 40.04 196.092 41.672Z" fill="#570303"/>
<defs>
<clipPath id="clip0_700_959">
<rect width="37.3" height="31.542" fill="white" transform="translate(70 64)"/>
</clipPath>
</defs>
</svg>
