<svg width="350" height="220" viewBox="0 0 350 220" fill="none" xmlns="http://www.w3.org/2000/svg">
<rect x="0.5" y="0.5" width="349" height="219" stroke="black"/>
<path d="M100.722 106.438C100.722 106.933 100.596 107.376 100.344 107.768C100.092 108.151 99.7513 108.454 99.322 108.678C98.902 108.893 98.44 109 97.936 109H93.246V99.06H98.034C98.5007 99.06 98.902 99.186 99.238 99.438C99.574 99.6807 99.8353 99.998 100.022 100.39C100.209 100.773 100.302 101.174 100.302 101.594C100.302 102.089 100.176 102.546 99.924 102.966C99.672 103.386 99.322 103.699 98.874 103.904C99.434 104.072 99.882 104.385 100.218 104.842C100.554 105.299 100.722 105.831 100.722 106.438ZM94.226 99.914V103.582H97.642C97.9687 103.582 98.258 103.498 98.51 103.33C98.7713 103.153 98.972 102.929 99.112 102.658C99.2613 102.378 99.336 102.075 99.336 101.748C99.336 101.412 99.266 101.104 99.126 100.824C98.986 100.544 98.7947 100.325 98.552 100.166C98.3093 99.998 98.034 99.914 97.726 99.914H94.226ZM99.742 106.27C99.742 105.943 99.6673 105.635 99.518 105.346C99.3687 105.057 99.1633 104.823 98.902 104.646C98.65 104.469 98.3607 104.38 98.034 104.38H94.226V108.146H97.936C98.272 108.146 98.5753 108.057 98.846 107.88C99.1167 107.703 99.3313 107.474 99.49 107.194C99.658 106.905 99.742 106.597 99.742 106.27ZM101.786 106.9C101.786 106.452 101.917 106.065 102.178 105.738C102.44 105.402 102.799 105.141 103.256 104.954C103.723 104.767 104.26 104.674 104.866 104.674C105.221 104.674 105.59 104.707 105.972 104.772C106.355 104.828 106.696 104.907 106.994 105.01V104.394C106.994 103.778 106.812 103.288 106.448 102.924C106.084 102.56 105.58 102.378 104.936 102.378C104.554 102.378 104.171 102.453 103.788 102.602C103.406 102.742 103.009 102.952 102.598 103.232L102.234 102.56C102.71 102.233 103.177 101.991 103.634 101.832C104.092 101.664 104.558 101.58 105.034 101.58C105.93 101.58 106.64 101.837 107.162 102.35C107.685 102.863 107.946 103.573 107.946 104.478V107.852C107.946 108.104 108.063 108.235 108.296 108.244V109C108.091 109.028 107.946 109.037 107.862 109.028C107.629 109.019 107.452 108.944 107.33 108.804C107.209 108.664 107.144 108.515 107.134 108.356L107.12 107.824C106.794 108.244 106.369 108.571 105.846 108.804C105.324 109.028 104.792 109.14 104.25 109.14C103.774 109.14 103.35 109.042 102.976 108.846C102.603 108.641 102.309 108.37 102.094 108.034C101.889 107.689 101.786 107.311 101.786 106.9ZM106.672 107.46C106.887 107.208 106.994 106.975 106.994 106.76V105.696C106.35 105.444 105.678 105.318 104.978 105.318C104.297 105.318 103.746 105.453 103.326 105.724C102.906 105.995 102.696 106.363 102.696 106.83C102.696 107.231 102.85 107.595 103.158 107.922C103.476 108.249 103.914 108.412 104.474 108.412C104.932 108.412 105.356 108.323 105.748 108.146C106.15 107.969 106.458 107.74 106.672 107.46ZM116.135 109H115.183V104.926C115.183 104.067 115.052 103.442 114.791 103.05C114.539 102.649 114.147 102.448 113.615 102.448C113.242 102.448 112.873 102.541 112.509 102.728C112.145 102.905 111.823 103.153 111.543 103.47C111.272 103.778 111.076 104.133 110.955 104.534V109H110.003V101.706H110.871V103.358C111.16 102.826 111.585 102.397 112.145 102.07C112.705 101.743 113.312 101.58 113.965 101.58C114.506 101.58 114.936 101.711 115.253 101.972C115.57 102.224 115.794 102.588 115.925 103.064C116.065 103.531 116.135 104.086 116.135 104.73V109ZM117.675 105.374C117.675 104.683 117.815 104.053 118.095 103.484C118.385 102.905 118.781 102.443 119.285 102.098C119.789 101.753 120.363 101.58 121.007 101.58C121.614 101.58 122.155 101.743 122.631 102.07C123.117 102.387 123.495 102.775 123.765 103.232V98.78H124.717V107.852C124.717 108.104 124.829 108.235 125.053 108.244V109C124.867 109.028 124.722 109.037 124.619 109.028C124.414 109.019 124.237 108.944 124.087 108.804C123.947 108.655 123.877 108.487 123.877 108.3V107.586C123.588 108.062 123.196 108.44 122.701 108.72C122.207 109 121.693 109.14 121.161 109.14C120.657 109.14 120.191 109.037 119.761 108.832C119.332 108.627 118.959 108.347 118.641 107.992C118.333 107.637 118.095 107.236 117.927 106.788C117.759 106.331 117.675 105.859 117.675 105.374ZM123.765 106.494V104.24C123.644 103.904 123.448 103.601 123.177 103.33C122.907 103.05 122.599 102.831 122.253 102.672C121.917 102.504 121.581 102.42 121.245 102.42C120.723 102.42 120.265 102.565 119.873 102.854C119.491 103.134 119.192 103.503 118.977 103.96C118.763 104.408 118.655 104.879 118.655 105.374C118.655 105.897 118.772 106.382 119.005 106.83C119.248 107.278 119.575 107.637 119.985 107.908C120.396 108.169 120.858 108.3 121.371 108.3C121.689 108.3 122.02 108.221 122.365 108.062C122.72 107.894 123.028 107.675 123.289 107.404C123.56 107.133 123.719 106.83 123.765 106.494ZM130.024 109.14C129.324 109.14 128.699 108.967 128.148 108.622C127.598 108.277 127.164 107.815 126.846 107.236C126.529 106.657 126.37 106.023 126.37 105.332C126.37 104.651 126.524 104.025 126.832 103.456C127.15 102.887 127.584 102.434 128.134 102.098C128.685 101.753 129.31 101.58 130.01 101.58C130.729 101.58 131.359 101.753 131.9 102.098C132.442 102.443 132.862 102.901 133.16 103.47C133.468 104.03 133.622 104.646 133.622 105.318C133.622 105.467 133.618 105.593 133.608 105.696H127.364C127.411 106.219 127.56 106.685 127.812 107.096C128.064 107.497 128.386 107.819 128.778 108.062C129.17 108.295 129.6 108.412 130.066 108.412C130.542 108.412 130.99 108.291 131.41 108.048C131.83 107.805 132.129 107.488 132.306 107.096L133.132 107.32C132.983 107.675 132.75 107.992 132.432 108.272C132.124 108.543 131.765 108.757 131.354 108.916C130.944 109.065 130.5 109.14 130.024 109.14ZM127.336 105.01H132.726C132.689 104.487 132.544 104.025 132.292 103.624C132.04 103.213 131.718 102.896 131.326 102.672C130.934 102.439 130.5 102.322 130.024 102.322C129.548 102.322 129.114 102.439 128.722 102.672C128.33 102.896 128.008 103.213 127.756 103.624C127.514 104.025 127.374 104.487 127.336 105.01ZM138.071 106.9C138.071 106.452 138.202 106.065 138.463 105.738C138.725 105.402 139.084 105.141 139.541 104.954C140.008 104.767 140.545 104.674 141.151 104.674C141.506 104.674 141.875 104.707 142.257 104.772C142.64 104.828 142.981 104.907 143.279 105.01V104.394C143.279 103.778 143.097 103.288 142.733 102.924C142.369 102.56 141.865 102.378 141.221 102.378C140.839 102.378 140.456 102.453 140.073 102.602C139.691 102.742 139.294 102.952 138.883 103.232L138.519 102.56C138.995 102.233 139.462 101.991 139.919 101.832C140.377 101.664 140.843 101.58 141.319 101.58C142.215 101.58 142.925 101.837 143.447 102.35C143.97 102.863 144.231 103.573 144.231 104.478V107.852C144.231 108.104 144.348 108.235 144.581 108.244V109C144.376 109.028 144.231 109.037 144.147 109.028C143.914 109.019 143.737 108.944 143.615 108.804C143.494 108.664 143.429 108.515 143.419 108.356L143.405 107.824C143.079 108.244 142.654 108.571 142.131 108.804C141.609 109.028 141.077 109.14 140.535 109.14C140.059 109.14 139.635 109.042 139.261 108.846C138.888 108.641 138.594 108.37 138.379 108.034C138.174 107.689 138.071 107.311 138.071 106.9ZM142.957 107.46C143.172 107.208 143.279 106.975 143.279 106.76V105.696C142.635 105.444 141.963 105.318 141.263 105.318C140.582 105.318 140.031 105.453 139.611 105.724C139.191 105.995 138.981 106.363 138.981 106.83C138.981 107.231 139.135 107.595 139.443 107.922C139.761 108.249 140.199 108.412 140.759 108.412C141.217 108.412 141.641 108.323 142.033 108.146C142.435 107.969 142.743 107.74 142.957 107.46ZM152.42 109H151.468V104.926C151.468 104.067 151.338 103.442 151.076 103.05C150.824 102.649 150.432 102.448 149.9 102.448C149.527 102.448 149.158 102.541 148.794 102.728C148.43 102.905 148.108 103.153 147.828 103.47C147.558 103.778 147.362 104.133 147.24 104.534V109H146.288V101.706H147.156V103.358C147.446 102.826 147.87 102.397 148.43 102.07C148.99 101.743 149.597 101.58 150.25 101.58C150.792 101.58 151.221 101.711 151.538 101.972C151.856 102.224 152.08 102.588 152.21 103.064C152.35 103.531 152.42 104.086 152.42 104.73V109ZM160.582 109H159.63V104.926C159.63 104.067 159.5 103.442 159.238 103.05C158.986 102.649 158.594 102.448 158.062 102.448C157.689 102.448 157.32 102.541 156.956 102.728C156.592 102.905 156.27 103.153 155.99 103.47C155.72 103.778 155.524 104.133 155.402 104.534V109H154.45V101.706H155.318V103.358C155.608 102.826 156.032 102.397 156.592 102.07C157.152 101.743 157.759 101.58 158.412 101.58C158.954 101.58 159.383 101.711 159.7 101.972C160.018 102.224 160.242 102.588 160.372 103.064C160.512 103.531 160.582 104.086 160.582 104.73V109ZM165.721 109.14C165.021 109.14 164.395 108.967 163.845 108.622C163.303 108.277 162.879 107.819 162.571 107.25C162.263 106.671 162.109 106.046 162.109 105.374C162.109 104.693 162.263 104.067 162.571 103.498C162.888 102.919 163.317 102.457 163.859 102.112C164.409 101.757 165.03 101.58 165.721 101.58C166.421 101.58 167.041 101.757 167.583 102.112C168.133 102.457 168.563 102.919 168.871 103.498C169.188 104.067 169.347 104.693 169.347 105.374C169.347 106.046 169.193 106.671 168.885 107.25C168.577 107.819 168.147 108.277 167.597 108.622C167.055 108.967 166.43 109.14 165.721 109.14ZM163.075 105.388C163.075 105.929 163.191 106.424 163.425 106.872C163.667 107.311 163.989 107.661 164.391 107.922C164.792 108.174 165.235 108.3 165.721 108.3C166.206 108.3 166.649 108.169 167.051 107.908C167.452 107.647 167.774 107.292 168.017 106.844C168.259 106.396 168.381 105.901 168.381 105.36C168.381 104.819 168.259 104.324 168.017 103.876C167.774 103.428 167.452 103.073 167.051 102.812C166.649 102.551 166.206 102.42 165.721 102.42C165.245 102.42 164.806 102.555 164.405 102.826C164.003 103.087 163.681 103.442 163.439 103.89C163.196 104.338 163.075 104.837 163.075 105.388ZM177.071 109H176.119V104.926C176.119 104.067 175.988 103.442 175.727 103.05C175.475 102.649 175.083 102.448 174.551 102.448C174.177 102.448 173.809 102.541 173.445 102.728C173.081 102.905 172.759 103.153 172.479 103.47C172.208 103.778 172.012 104.133 171.891 104.534V109H170.939V101.706H171.807V103.358C172.096 102.826 172.521 102.397 173.081 102.07C173.641 101.743 174.247 101.58 174.901 101.58C175.442 101.58 175.871 101.711 176.189 101.972C176.506 102.224 176.73 102.588 176.861 103.064C177.001 103.531 177.071 104.086 177.071 104.73V109ZM182.265 109.14C181.555 109.14 180.925 108.967 180.375 108.622C179.824 108.267 179.39 107.805 179.073 107.236C178.755 106.657 178.597 106.023 178.597 105.332C178.597 104.641 178.751 104.016 179.059 103.456C179.367 102.887 179.796 102.434 180.347 102.098C180.897 101.753 181.532 101.58 182.251 101.58C182.932 101.58 183.529 101.739 184.043 102.056C184.565 102.364 184.957 102.784 185.219 103.316L184.295 103.61C184.089 103.237 183.8 102.947 183.427 102.742C183.063 102.527 182.657 102.42 182.209 102.42C181.714 102.42 181.266 102.546 180.865 102.798C180.473 103.05 180.155 103.4 179.913 103.848C179.679 104.287 179.563 104.781 179.563 105.332C179.563 105.883 179.684 106.382 179.927 106.83C180.169 107.278 180.491 107.637 180.893 107.908C181.294 108.169 181.737 108.3 182.223 108.3C182.54 108.3 182.848 108.244 183.147 108.132C183.445 108.02 183.702 107.871 183.917 107.684C184.131 107.488 184.276 107.278 184.351 107.054L185.289 107.334C185.158 107.679 184.943 107.992 184.645 108.272C184.346 108.543 183.991 108.757 183.581 108.916C183.17 109.065 182.731 109.14 182.265 109.14ZM189.866 109.14C189.166 109.14 188.541 108.967 187.99 108.622C187.439 108.277 187.005 107.815 186.688 107.236C186.371 106.657 186.212 106.023 186.212 105.332C186.212 104.651 186.366 104.025 186.674 103.456C186.991 102.887 187.425 102.434 187.976 102.098C188.527 101.753 189.152 101.58 189.852 101.58C190.571 101.58 191.201 101.753 191.742 102.098C192.283 102.443 192.703 102.901 193.002 103.47C193.31 104.03 193.464 104.646 193.464 105.318C193.464 105.467 193.459 105.593 193.45 105.696H187.206C187.253 106.219 187.402 106.685 187.654 107.096C187.906 107.497 188.228 107.819 188.62 108.062C189.012 108.295 189.441 108.412 189.908 108.412C190.384 108.412 190.832 108.291 191.252 108.048C191.672 107.805 191.971 107.488 192.148 107.096L192.974 107.32C192.825 107.675 192.591 107.992 192.274 108.272C191.966 108.543 191.607 108.757 191.196 108.916C190.785 109.065 190.342 109.14 189.866 109.14ZM187.178 105.01H192.568C192.531 104.487 192.386 104.025 192.134 103.624C191.882 103.213 191.56 102.896 191.168 102.672C190.776 102.439 190.342 102.322 189.866 102.322C189.39 102.322 188.956 102.439 188.564 102.672C188.172 102.896 187.85 103.213 187.598 103.624C187.355 104.025 187.215 104.487 187.178 105.01ZM198.011 105.374C198.011 104.683 198.151 104.053 198.431 103.484C198.721 102.905 199.117 102.443 199.621 102.098C200.125 101.753 200.699 101.58 201.343 101.58C201.95 101.58 202.491 101.743 202.967 102.07C203.453 102.387 203.831 102.775 204.101 103.232V98.78H205.053V107.852C205.053 108.104 205.165 108.235 205.389 108.244V109C205.203 109.028 205.058 109.037 204.955 109.028C204.75 109.019 204.573 108.944 204.423 108.804C204.283 108.655 204.213 108.487 204.213 108.3V107.586C203.924 108.062 203.532 108.44 203.037 108.72C202.543 109 202.029 109.14 201.497 109.14C200.993 109.14 200.527 109.037 200.097 108.832C199.668 108.627 199.295 108.347 198.977 107.992C198.669 107.637 198.431 107.236 198.263 106.788C198.095 106.331 198.011 105.859 198.011 105.374ZM204.101 106.494V104.24C203.98 103.904 203.784 103.601 203.513 103.33C203.243 103.05 202.935 102.831 202.589 102.672C202.253 102.504 201.917 102.42 201.581 102.42C201.059 102.42 200.601 102.565 200.209 102.854C199.827 103.134 199.528 103.503 199.313 103.96C199.099 104.408 198.991 104.879 198.991 105.374C198.991 105.897 199.108 106.382 199.341 106.83C199.584 107.278 199.911 107.637 200.321 107.908C200.732 108.169 201.194 108.3 201.707 108.3C202.025 108.3 202.356 108.221 202.701 108.062C203.056 107.894 203.364 107.675 203.625 107.404C203.896 107.133 204.055 106.83 204.101 106.494ZM207.14 105.99V101.706H208.092V105.822C208.092 107.474 208.657 108.3 209.786 108.3C210.346 108.3 210.869 108.118 211.354 107.754C211.849 107.39 212.203 106.905 212.418 106.298V101.706H213.37V107.852C213.37 108.104 213.482 108.235 213.706 108.244V109C213.594 109.019 213.505 109.028 213.44 109.028C213.384 109.028 213.323 109.028 213.258 109.028C213.062 109.009 212.894 108.935 212.754 108.804C212.623 108.673 212.558 108.515 212.558 108.328L212.53 107.348C212.213 107.917 211.779 108.361 211.228 108.678C210.687 108.986 210.099 109.14 209.464 109.14C207.915 109.14 207.14 108.09 207.14 105.99ZM219.441 102.462H218.433V101.706H219.441V101.51C219.441 101.053 219.53 100.605 219.707 100.166C219.894 99.7273 220.174 99.3633 220.547 99.074C220.93 98.7847 221.42 98.64 222.017 98.64C222.53 98.64 222.969 98.7193 223.333 98.878C223.706 99.0367 223.972 99.1767 224.131 99.298L223.697 99.984C223.538 99.844 223.314 99.7273 223.025 99.634C222.736 99.5313 222.418 99.48 222.073 99.48C221.672 99.48 221.35 99.5827 221.107 99.788C220.864 99.984 220.682 100.236 220.561 100.544C220.449 100.852 220.393 101.165 220.393 101.482V101.706H224.047V109H223.095V102.462H220.393V109H219.441V102.462ZM226.188 98.78H227.14V107.348C227.14 107.712 227.2 107.95 227.322 108.062C227.452 108.174 227.616 108.23 227.812 108.23C227.98 108.23 228.148 108.211 228.316 108.174C228.493 108.137 228.638 108.099 228.75 108.062L228.918 108.832C228.74 108.907 228.521 108.967 228.26 109.014C228.008 109.061 227.788 109.084 227.602 109.084C227.172 109.084 226.827 108.958 226.566 108.706C226.314 108.454 226.188 108.109 226.188 107.67V98.78ZM240.81 109H239.858V104.926C239.858 104.086 239.723 103.465 239.452 103.064C239.181 102.653 238.78 102.448 238.248 102.448C237.688 102.448 237.193 102.644 236.764 103.036C236.335 103.428 236.031 103.932 235.854 104.548V109H234.902V104.926C234.902 104.067 234.767 103.442 234.496 103.05C234.235 102.649 233.838 102.448 233.306 102.448C232.755 102.448 232.261 102.639 231.822 103.022C231.393 103.405 231.089 103.909 230.912 104.534V109H229.96V101.706H230.828V103.358C231.127 102.798 231.519 102.364 232.004 102.056C232.489 101.739 233.026 101.58 233.614 101.58C234.221 101.58 234.711 101.757 235.084 102.112C235.457 102.457 235.686 102.905 235.77 103.456C236.442 102.205 237.38 101.58 238.584 101.58C239.405 101.58 239.979 101.869 240.306 102.448C240.642 103.017 240.81 103.778 240.81 104.73V109Z" fill="black"/>
</svg>
