<svg width="375" height="98" viewBox="0 0 375 98" fill="none" xmlns="http://www.w3.org/2000/svg">
<rect width="375" height="98" fill="#474546"/>
<path d="M123.744 54.36C123.744 53.32 123.928 52.296 124.296 51.288C124.68 50.28 125.232 49.368 125.952 48.552C126.672 47.736 127.552 47.088 128.592 46.608C129.632 46.112 130.816 45.864 132.144 45.864C133.696 45.864 135.048 46.208 136.2 46.896C137.352 47.584 138.208 48.48 138.768 49.584L136.224 51.336C135.936 50.696 135.56 50.192 135.096 49.824C134.632 49.456 134.128 49.192 133.584 49.032C133.056 48.872 132.544 48.792 132.048 48.792C131.216 48.792 130.488 48.96 129.864 49.296C129.256 49.632 128.744 50.072 128.328 50.616C127.912 51.16 127.6 51.768 127.392 52.44C127.2 53.112 127.104 53.784 127.104 54.456C127.104 55.464 127.312 56.408 127.728 57.288C128.144 58.152 128.728 58.856 129.48 59.4C130.232 59.944 131.104 60.216 132.096 60.216C132.608 60.216 133.136 60.128 133.68 59.952C134.24 59.776 134.752 59.496 135.216 59.112C135.68 58.728 136.04 58.232 136.296 57.624L139.008 59.184C138.656 60.032 138.104 60.752 137.352 61.344C136.6 61.92 135.752 62.368 134.808 62.688C133.864 62.992 132.928 63.144 132 63.144C130.784 63.144 129.672 62.896 128.664 62.4C127.672 61.888 126.808 61.216 126.072 60.384C125.336 59.536 124.76 58.592 124.344 57.552C123.944 56.496 123.744 55.432 123.744 54.36ZM141.229 63V45.96H148.765C149.549 45.96 150.269 46.12 150.925 46.44C151.597 46.76 152.173 47.192 152.653 47.736C153.149 48.28 153.525 48.888 153.781 49.56C154.053 50.232 154.189 50.92 154.189 51.624C154.189 52.712 153.909 53.712 153.349 54.624C152.805 55.536 152.061 56.192 151.117 56.592L155.005 63H151.357L147.853 57.288H144.541V63H141.229ZM144.541 54.384H148.693C149.317 54.384 149.829 54.12 150.229 53.592C150.645 53.048 150.853 52.392 150.853 51.624C150.853 51.096 150.741 50.624 150.517 50.208C150.293 49.792 150.005 49.464 149.653 49.224C149.317 48.984 148.949 48.864 148.549 48.864H144.541V54.384ZM164.368 63.12C163.12 63.12 161.984 62.88 160.96 62.4C159.952 61.92 159.08 61.272 158.344 60.456C157.624 59.624 157.064 58.696 156.664 57.672C156.264 56.632 156.064 55.568 156.064 54.48C156.064 53.344 156.272 52.264 156.688 51.24C157.104 50.2 157.688 49.28 158.44 48.48C159.192 47.664 160.072 47.024 161.08 46.56C162.104 46.08 163.224 45.84 164.44 45.84C165.672 45.84 166.792 46.088 167.8 46.584C168.824 47.08 169.696 47.744 170.416 48.576C171.152 49.408 171.712 50.344 172.096 51.384C172.496 52.408 172.696 53.456 172.696 54.528C172.696 55.648 172.488 56.728 172.072 57.768C171.656 58.792 171.072 59.712 170.32 60.528C169.584 61.328 168.704 61.96 167.68 62.424C166.672 62.888 165.568 63.12 164.368 63.12ZM159.424 54.48C159.424 55.472 159.616 56.4 160 57.264C160.4 58.128 160.968 58.832 161.704 59.376C162.456 59.92 163.352 60.192 164.392 60.192C165.464 60.192 166.368 59.912 167.104 59.352C167.84 58.792 168.4 58.072 168.784 57.192C169.168 56.312 169.36 55.408 169.36 54.48C169.36 53.488 169.16 52.56 168.76 51.696C168.36 50.832 167.784 50.136 167.032 49.608C166.296 49.064 165.416 48.792 164.392 48.792C163.32 48.792 162.416 49.072 161.68 49.632C160.944 50.192 160.384 50.912 160 51.792C159.616 52.656 159.424 53.552 159.424 54.48ZM174.205 54.36C174.205 53.32 174.389 52.296 174.757 51.288C175.141 50.28 175.693 49.368 176.413 48.552C177.133 47.736 178.013 47.088 179.053 46.608C180.093 46.112 181.277 45.864 182.605 45.864C184.157 45.864 185.509 46.208 186.661 46.896C187.813 47.584 188.669 48.48 189.229 49.584L186.685 51.336C186.397 50.696 186.021 50.192 185.557 49.824C185.093 49.456 184.589 49.192 184.045 49.032C183.517 48.872 183.005 48.792 182.509 48.792C181.677 48.792 180.949 48.96 180.325 49.296C179.717 49.632 179.205 50.072 178.789 50.616C178.373 51.16 178.061 51.768 177.853 52.44C177.661 53.112 177.565 53.784 177.565 54.456C177.565 55.464 177.773 56.408 178.189 57.288C178.605 58.152 179.189 58.856 179.941 59.4C180.693 59.944 181.565 60.216 182.557 60.216C183.069 60.216 183.597 60.128 184.141 59.952C184.701 59.776 185.213 59.496 185.677 59.112C186.141 58.728 186.501 58.232 186.757 57.624L189.469 59.184C189.117 60.032 188.565 60.752 187.813 61.344C187.061 61.92 186.213 62.368 185.269 62.688C184.325 62.992 183.389 63.144 182.461 63.144C181.245 63.144 180.133 62.896 179.125 62.4C178.133 61.888 177.269 61.216 176.533 60.384C175.797 59.536 175.221 58.592 174.805 57.552C174.405 56.496 174.205 55.432 174.205 54.36ZM197.456 63V45.96H203.648C205.504 45.96 207.056 46.344 208.304 47.112C209.552 47.864 210.488 48.888 211.112 50.184C211.736 51.464 212.048 52.888 212.048 54.456C212.048 56.184 211.704 57.688 211.016 58.968C210.328 60.248 209.352 61.24 208.088 61.944C206.824 62.648 205.344 63 203.648 63H197.456ZM208.712 54.456C208.712 53.352 208.512 52.384 208.112 51.552C207.712 50.704 207.136 50.048 206.384 49.584C205.632 49.104 204.72 48.864 203.648 48.864H200.768V60.096H203.648C204.736 60.096 205.656 59.856 206.408 59.376C207.16 58.88 207.728 58.208 208.112 57.36C208.512 56.496 208.712 55.528 208.712 54.456ZM212.712 51.648L213.264 48.72H212.304V45.48H215.52V48.768L214.68 51.648H212.712ZM225.798 63.12C224.55 63.12 223.414 62.88 222.39 62.4C221.382 61.92 220.51 61.272 219.774 60.456C219.054 59.624 218.494 58.696 218.094 57.672C217.694 56.632 217.494 55.568 217.494 54.48C217.494 53.344 217.702 52.264 218.118 51.24C218.534 50.2 219.118 49.28 219.87 48.48C220.622 47.664 221.502 47.024 222.51 46.56C223.534 46.08 224.654 45.84 225.87 45.84C227.102 45.84 228.222 46.088 229.23 46.584C230.254 47.08 231.126 47.744 231.846 48.576C232.582 49.408 233.142 50.344 233.526 51.384C233.926 52.408 234.126 53.456 234.126 54.528C234.126 55.648 233.918 56.728 233.502 57.768C233.086 58.792 232.502 59.712 231.75 60.528C231.014 61.328 230.134 61.96 229.11 62.424C228.102 62.888 226.998 63.12 225.798 63.12ZM220.854 54.48C220.854 55.472 221.046 56.4 221.43 57.264C221.83 58.128 222.398 58.832 223.134 59.376C223.886 59.92 224.782 60.192 225.822 60.192C226.894 60.192 227.798 59.912 228.534 59.352C229.27 58.792 229.83 58.072 230.214 57.192C230.598 56.312 230.79 55.408 230.79 54.48C230.79 53.488 230.59 52.56 230.19 51.696C229.79 50.832 229.214 50.136 228.462 49.608C227.726 49.064 226.846 48.792 225.822 48.792C224.75 48.792 223.846 49.072 223.11 49.632C222.374 50.192 221.814 50.912 221.43 51.792C221.046 52.656 220.854 53.552 220.854 54.48ZM236.667 63V45.96H244.203C244.987 45.96 245.707 46.12 246.363 46.44C247.035 46.76 247.611 47.192 248.091 47.736C248.587 48.28 248.963 48.888 249.219 49.56C249.491 50.232 249.627 50.92 249.627 51.624C249.627 52.712 249.347 53.712 248.787 54.624C248.243 55.536 247.499 56.192 246.555 56.592L250.443 63H246.795L243.291 57.288H239.979V63H236.667ZM239.979 54.384H244.131C244.755 54.384 245.267 54.12 245.667 53.592C246.083 53.048 246.291 52.392 246.291 51.624C246.291 51.096 246.179 50.624 245.955 50.208C245.731 49.792 245.443 49.464 245.091 49.224C244.755 48.984 244.387 48.864 243.987 48.864H239.979V54.384Z" fill="#FFBF00"/>
<rect x="8.5" y="41.5" width="28" height="6" fill="#FEC003" stroke="black"/>
<rect x="8.5" y="25.5" width="28" height="6" fill="#FEC003" stroke="black"/>
<rect x="8.5" y="33.5" width="28" height="6" fill="#FEC003" stroke="black"/>
<path d="M51.0987 31.9565L45.299 39.0982L39.3692 32.0642L51.0987 31.9565Z" fill="#FBBE01" stroke="black"/>
</svg>
