<svg width="350" height="220" viewBox="0 0 350 220" fill="none" xmlns="http://www.w3.org/2000/svg">
<rect x="0.5" y="0.5" width="349" height="219" stroke="#BEBEBE"/>
<path d="M92.81 103.418H94.754L98.714 113.498L102.674 103.418H104.618L99.596 116H97.832L92.81 103.418ZM106.484 105.668C106.184 105.668 105.932 105.566 105.728 105.362C105.524 105.158 105.422 104.906 105.422 104.606C105.422 104.306 105.524 104.054 105.728 103.85C105.932 103.646 106.184 103.544 106.484 103.544C106.796 103.544 107.054 103.646 107.258 103.85C107.474 104.054 107.582 104.306 107.582 104.606C107.582 104.906 107.474 105.158 107.258 105.362C107.054 105.566 106.796 105.668 106.484 105.668ZM105.566 107.36H107.42V116H105.566V107.36ZM114.098 116.27C113.234 116.27 112.454 116.084 111.758 115.712C111.074 115.328 110.534 114.794 110.138 114.11C109.754 113.414 109.562 112.61 109.562 111.698C109.562 110.798 109.754 110 110.138 109.304C110.534 108.608 111.074 108.068 111.758 107.684C112.454 107.288 113.234 107.09 114.098 107.09C115.658 107.09 116.84 107.564 117.644 108.512V102.698H119.462V116H117.698V114.74C117.218 115.268 116.69 115.658 116.114 115.91C115.55 116.15 114.878 116.27 114.098 116.27ZM114.512 114.83C115.256 114.83 115.904 114.638 116.456 114.254C117.02 113.858 117.416 113.33 117.644 112.67V110.726C117.44 110.066 117.05 109.538 116.474 109.142C115.91 108.746 115.256 108.548 114.512 108.548C113.924 108.548 113.39 108.68 112.91 108.944C112.442 109.208 112.07 109.58 111.794 110.06C111.53 110.54 111.398 111.086 111.398 111.698C111.398 112.31 111.53 112.856 111.794 113.336C112.07 113.816 112.442 114.188 112.91 114.452C113.39 114.704 113.924 114.83 114.512 114.83ZM126.377 103.292H128.303L126.809 106.388H125.153L126.377 103.292ZM126.557 116.27C124.961 116.27 123.707 115.874 122.795 115.082C121.895 114.278 121.445 113.15 121.445 111.698C121.445 110.282 121.847 109.16 122.651 108.332C123.467 107.504 124.625 107.09 126.125 107.09C127.121 107.09 127.967 107.282 128.663 107.666C129.359 108.038 129.881 108.56 130.229 109.232C130.589 109.892 130.769 110.648 130.769 111.5V112.4H123.173C123.233 113.216 123.575 113.828 124.199 114.236C124.835 114.632 125.693 114.83 126.773 114.83C127.325 114.83 127.883 114.782 128.447 114.686C129.011 114.578 129.509 114.44 129.941 114.272V115.73C129.557 115.886 129.047 116.012 128.411 116.108C127.787 116.216 127.169 116.27 126.557 116.27ZM129.059 111.122C129.035 110.306 128.765 109.676 128.249 109.232C127.745 108.776 127.025 108.548 126.089 108.548C125.177 108.548 124.469 108.782 123.965 109.25C123.461 109.718 123.197 110.342 123.173 111.122H129.059ZM137.31 116.27C136.338 116.27 135.48 116.09 134.736 115.73C134.004 115.358 133.428 114.83 133.008 114.146C132.6 113.45 132.396 112.634 132.396 111.698C132.396 110.774 132.6 109.964 133.008 109.268C133.416 108.572 133.992 108.038 134.736 107.666C135.48 107.282 136.338 107.09 137.31 107.09C138.282 107.09 139.14 107.282 139.884 107.666C140.628 108.038 141.204 108.572 141.612 109.268C142.032 109.964 142.242 110.774 142.242 111.698C142.242 112.634 142.032 113.45 141.612 114.146C141.204 114.83 140.628 115.358 139.884 115.73C139.14 116.09 138.282 116.27 137.31 116.27ZM137.31 114.83C138.246 114.83 138.99 114.542 139.542 113.966C140.094 113.39 140.37 112.634 140.37 111.698C140.37 110.726 140.094 109.958 139.542 109.394C138.99 108.83 138.246 108.548 137.31 108.548C136.374 108.548 135.63 108.83 135.078 109.394C134.526 109.958 134.25 110.726 134.25 111.698C134.25 112.634 134.526 113.39 135.078 113.966C135.63 114.542 136.374 114.83 137.31 114.83ZM155.055 116.27C154.191 116.27 153.411 116.084 152.715 115.712C152.031 115.328 151.491 114.794 151.095 114.11C150.711 113.414 150.519 112.61 150.519 111.698C150.519 110.798 150.711 110 151.095 109.304C151.491 108.608 152.031 108.068 152.715 107.684C153.411 107.288 154.191 107.09 155.055 107.09C156.615 107.09 157.797 107.564 158.601 108.512V102.698H160.419V116H158.655V114.74C158.175 115.268 157.647 115.658 157.071 115.91C156.507 116.15 155.835 116.27 155.055 116.27ZM155.469 114.83C156.213 114.83 156.861 114.638 157.413 114.254C157.977 113.858 158.373 113.33 158.601 112.67V110.726C158.397 110.066 158.007 109.538 157.431 109.142C156.867 108.746 156.213 108.548 155.469 108.548C154.881 108.548 154.347 108.68 153.867 108.944C153.399 109.208 153.027 109.58 152.751 110.06C152.487 110.54 152.355 111.086 152.355 111.698C152.355 112.31 152.487 112.856 152.751 113.336C153.027 113.816 153.399 114.188 153.867 114.452C154.347 114.704 154.881 114.83 155.469 114.83ZM167.514 116.27C165.918 116.27 164.664 115.874 163.752 115.082C162.852 114.278 162.402 113.15 162.402 111.698C162.402 110.282 162.804 109.16 163.608 108.332C164.424 107.504 165.582 107.09 167.082 107.09C168.078 107.09 168.924 107.282 169.62 107.666C170.316 108.038 170.838 108.56 171.186 109.232C171.546 109.892 171.726 110.648 171.726 111.5V112.4H164.13C164.19 113.216 164.532 113.828 165.156 114.236C165.792 114.632 166.65 114.83 167.73 114.83C168.282 114.83 168.84 114.782 169.404 114.686C169.968 114.578 170.466 114.44 170.898 114.272V115.73C170.514 115.886 170.004 116.012 169.368 116.108C168.744 116.216 168.126 116.27 167.514 116.27ZM170.016 111.122C169.992 110.306 169.722 109.676 169.206 109.232C168.702 108.776 167.982 108.548 167.046 108.548C166.134 108.548 165.426 108.782 164.922 109.25C164.418 109.718 164.154 110.342 164.13 111.122H170.016ZM180.375 102.698H182.193V116H180.375V102.698ZM187.637 116.27C186.593 116.27 185.753 116.006 185.117 115.478C184.493 114.938 184.181 114.212 184.181 113.3C184.181 112.34 184.481 111.602 185.081 111.086C185.693 110.558 186.557 110.294 187.673 110.294C188.861 110.294 189.869 110.534 190.697 111.014V110.564C190.697 109.88 190.487 109.376 190.067 109.052C189.659 108.716 189.011 108.548 188.123 108.548C187.595 108.548 187.079 108.602 186.575 108.71C186.083 108.806 185.639 108.944 185.243 109.124V107.648C185.603 107.48 186.071 107.348 186.647 107.252C187.223 107.144 187.781 107.09 188.321 107.09C189.749 107.09 190.805 107.408 191.489 108.044C192.185 108.668 192.533 109.538 192.533 110.654V116H190.823V115.028C190.451 115.436 190.007 115.748 189.491 115.964C188.987 116.168 188.369 116.27 187.637 116.27ZM188.087 114.884C188.663 114.884 189.185 114.77 189.653 114.542C190.121 114.314 190.469 113.996 190.697 113.588V112.418C189.917 111.914 189.047 111.662 188.087 111.662C187.391 111.662 186.869 111.8 186.521 112.076C186.185 112.34 186.017 112.748 186.017 113.3C186.017 114.356 186.707 114.884 188.087 114.884ZM201.451 107.36H203.215V108.908C203.575 108.38 204.079 107.99 204.727 107.738C205.387 107.486 206.149 107.36 207.013 107.36V108.782C206.089 108.782 205.297 108.932 204.637 109.232C203.977 109.532 203.521 110.006 203.269 110.654V116H201.451V107.36ZM212.848 116.27C211.252 116.27 209.998 115.874 209.086 115.082C208.186 114.278 207.736 113.15 207.736 111.698C207.736 110.282 208.138 109.16 208.942 108.332C209.758 107.504 210.916 107.09 212.416 107.09C213.412 107.09 214.258 107.282 214.954 107.666C215.65 108.038 216.172 108.56 216.52 109.232C216.88 109.892 217.06 110.648 217.06 111.5V112.4H209.464C209.524 113.216 209.866 113.828 210.49 114.236C211.126 114.632 211.984 114.83 213.064 114.83C213.616 114.83 214.174 114.782 214.738 114.686C215.302 114.578 215.8 114.44 216.232 114.272V115.73C215.848 115.886 215.338 116.012 214.702 116.108C214.078 116.216 213.46 116.27 212.848 116.27ZM215.35 111.122C215.326 110.306 215.056 109.676 214.54 109.232C214.036 108.776 213.316 108.548 212.38 108.548C211.468 108.548 210.76 108.782 210.256 109.25C209.752 109.718 209.488 110.342 209.464 111.122H215.35ZM219.047 107.36H220.811V108.638C221.699 107.606 222.899 107.09 224.411 107.09C225.275 107.09 226.049 107.282 226.733 107.666C227.429 108.05 227.969 108.59 228.353 109.286C228.749 109.97 228.947 110.768 228.947 111.68C228.947 112.58 228.749 113.378 228.353 114.074C227.969 114.77 227.435 115.31 226.751 115.694C226.067 116.078 225.287 116.27 224.411 116.27C223.691 116.27 223.019 116.15 222.395 115.91C221.771 115.67 221.261 115.316 220.865 114.848V119.942H219.047V107.36ZM223.997 114.83C224.585 114.83 225.113 114.704 225.581 114.452C226.061 114.188 226.433 113.816 226.697 113.336C226.973 112.856 227.111 112.304 227.111 111.68C227.111 111.056 226.973 110.51 226.697 110.042C226.433 109.562 226.061 109.196 225.581 108.944C225.113 108.68 224.585 108.548 223.997 108.548C223.265 108.548 222.617 108.74 222.053 109.124C221.501 109.508 221.105 110.036 220.865 110.708V112.652C221.069 113.312 221.459 113.84 222.035 114.236C222.611 114.632 223.265 114.83 223.997 114.83ZM230.93 102.698H232.748V116H230.93V102.698ZM236.158 105.668C235.858 105.668 235.606 105.566 235.402 105.362C235.198 105.158 235.096 104.906 235.096 104.606C235.096 104.306 235.198 104.054 235.402 103.85C235.606 103.646 235.858 103.544 236.158 103.544C236.47 103.544 236.728 103.646 236.932 103.85C237.148 104.054 237.256 104.306 237.256 104.606C237.256 104.906 237.148 105.158 236.932 105.362C236.728 105.566 236.47 105.668 236.158 105.668ZM235.24 107.36H237.094V116H235.24V107.36ZM247.318 114.848C246.922 115.316 246.412 115.67 245.788 115.91C245.164 116.15 244.492 116.27 243.772 116.27C242.896 116.27 242.116 116.078 241.432 115.694C240.748 115.31 240.208 114.77 239.812 114.074C239.428 113.378 239.236 112.58 239.236 111.68C239.236 110.768 239.428 109.97 239.812 109.286C240.208 108.59 240.748 108.05 241.432 107.666C242.128 107.282 242.908 107.09 243.772 107.09C245.284 107.09 246.484 107.606 247.372 108.638V107.36H249.136V119.942H247.318V114.848ZM244.186 114.83C244.918 114.83 245.572 114.632 246.148 114.236C246.724 113.84 247.114 113.312 247.318 112.652V110.708C247.078 110.036 246.676 109.508 246.112 109.124C245.56 108.74 244.918 108.548 244.186 108.548C243.598 108.548 243.064 108.68 242.584 108.944C242.116 109.196 241.744 109.562 241.468 110.042C241.204 110.51 241.072 111.056 241.072 111.68C241.072 112.304 241.204 112.856 241.468 113.336C241.744 113.816 242.116 114.188 242.584 114.452C243.064 114.704 243.598 114.83 244.186 114.83ZM254.917 116.27C253.753 116.27 252.871 115.958 252.271 115.334C251.683 114.71 251.389 113.876 251.389 112.832V107.36H253.207V112.76C253.207 114.14 253.897 114.83 255.277 114.83C256.489 114.83 257.437 114.284 258.121 113.192V107.36H259.939V116H258.175V114.776C257.767 115.292 257.281 115.67 256.717 115.91C256.165 116.15 255.565 116.27 254.917 116.27ZM267.024 116.27C265.428 116.27 264.174 115.874 263.262 115.082C262.362 114.278 261.912 113.15 261.912 111.698C261.912 110.282 262.314 109.16 263.118 108.332C263.934 107.504 265.092 107.09 266.592 107.09C267.588 107.09 268.434 107.282 269.13 107.666C269.826 108.038 270.348 108.56 270.696 109.232C271.056 109.892 271.236 110.648 271.236 111.5V112.4H263.64C263.7 113.216 264.042 113.828 264.666 114.236C265.302 114.632 266.16 114.83 267.24 114.83C267.792 114.83 268.35 114.782 268.914 114.686C269.478 114.578 269.976 114.44 270.408 114.272V115.73C270.024 115.886 269.514 116.012 268.878 116.108C268.254 116.216 267.636 116.27 267.024 116.27ZM269.526 111.122C269.502 110.306 269.232 109.676 268.716 109.232C268.212 108.776 267.492 108.548 266.556 108.548C265.644 108.548 264.936 108.782 264.432 109.25C263.928 109.718 263.664 110.342 263.64 111.122H269.526Z" fill="#969694"/>
</svg>
