<svg width="128" height="19" viewBox="0 0 128 19" fill="none" xmlns="http://www.w3.org/2000/svg">
<path d="M0.744 9.36C0.744 8.32 0.928 7.296 1.296 6.288C1.68 5.28 2.232 4.368 2.952 3.552C3.672 2.736 4.552 2.088 5.592 1.608C6.632 1.112 7.816 0.863999 9.144 0.863999C10.696 0.863999 12.048 1.208 13.2 1.896C14.352 2.584 15.208 3.48 15.768 4.584L13.224 6.336C12.936 5.696 12.56 5.192 12.096 4.824C11.632 4.456 11.128 4.192 10.584 4.032C10.056 3.872 9.544 3.792 9.048 3.792C8.216 3.792 7.488 3.96 6.864 4.296C6.256 4.632 5.744 5.072 5.328 5.616C4.912 6.16 4.6 6.768 4.392 7.44C4.2 8.112 4.104 8.784 4.104 9.456C4.104 10.464 4.312 11.408 4.728 12.288C5.144 13.152 5.728 13.856 6.48 14.4C7.232 14.944 8.104 15.216 9.096 15.216C9.608 15.216 10.136 15.128 10.68 14.952C11.24 14.776 11.752 14.496 12.216 14.112C12.68 13.728 13.04 13.232 13.296 12.624L16.008 14.184C15.656 15.032 15.104 15.752 14.352 16.344C13.6 16.92 12.752 17.368 11.808 17.688C10.864 17.992 9.928 18.144 9 18.144C7.784 18.144 6.672 17.896 5.664 17.4C4.672 16.888 3.808 16.216 3.072 15.384C2.336 14.536 1.76 13.592 1.344 12.552C0.944 11.496 0.744 10.432 0.744 9.36ZM18.2291 18V0.959999H25.7651C26.5491 0.959999 27.2691 1.12 27.9251 1.44C28.5971 1.76 29.1731 2.192 29.6531 2.736C30.1491 3.28 30.5251 3.888 30.7811 4.56C31.0531 5.232 31.1891 5.92 31.1891 6.624C31.1891 7.712 30.9091 8.712 30.3491 9.624C29.8051 10.536 29.0611 11.192 28.1171 11.592L32.0051 18H28.3571L24.8531 12.288H21.5411V18H18.2291ZM21.5411 9.384H25.6931C26.3171 9.384 26.8291 9.12 27.2291 8.592C27.6451 8.048 27.8531 7.392 27.8531 6.624C27.8531 6.096 27.7411 5.624 27.5171 5.208C27.2931 4.792 27.0051 4.464 26.6531 4.224C26.3171 3.984 25.9491 3.864 25.5491 3.864H21.5411V9.384ZM41.3683 18.12C40.1203 18.12 38.9843 17.88 37.9603 17.4C36.9523 16.92 36.0803 16.272 35.3443 15.456C34.6243 14.624 34.0643 13.696 33.6643 12.672C33.2643 11.632 33.0643 10.568 33.0643 9.48C33.0643 8.344 33.2723 7.264 33.6883 6.24C34.1043 5.2 34.6883 4.28 35.4403 3.48C36.1923 2.664 37.0723 2.024 38.0803 1.56C39.1043 1.08 40.2243 0.839999 41.4403 0.839999C42.6723 0.839999 43.7923 1.088 44.8003 1.584C45.8243 2.08 46.6963 2.744 47.4163 3.576C48.1523 4.408 48.7123 5.344 49.0963 6.384C49.4963 7.408 49.6963 8.456 49.6963 9.528C49.6963 10.648 49.4883 11.728 49.0723 12.768C48.6563 13.792 48.0723 14.712 47.3203 15.528C46.5843 16.328 45.7043 16.96 44.6803 17.424C43.6723 17.888 42.5683 18.12 41.3683 18.12ZM36.4243 9.48C36.4243 10.472 36.6163 11.4 37.0003 12.264C37.4003 13.128 37.9683 13.832 38.7043 14.376C39.4563 14.92 40.3523 15.192 41.3923 15.192C42.4643 15.192 43.3683 14.912 44.1043 14.352C44.8403 13.792 45.4003 13.072 45.7843 12.192C46.1683 11.312 46.3603 10.408 46.3603 9.48C46.3603 8.488 46.1603 7.56 45.7603 6.696C45.3603 5.832 44.7843 5.136 44.0323 4.608C43.2963 4.064 42.4163 3.792 41.3923 3.792C40.3203 3.792 39.4163 4.072 38.6803 4.632C37.9443 5.192 37.3843 5.912 37.0003 6.792C36.6163 7.656 36.4243 8.552 36.4243 9.48ZM51.2049 9.36C51.2049 8.32 51.3889 7.296 51.7569 6.288C52.1409 5.28 52.6929 4.368 53.4129 3.552C54.1329 2.736 55.0129 2.088 56.0529 1.608C57.0929 1.112 58.2769 0.863999 59.6049 0.863999C61.1569 0.863999 62.5089 1.208 63.6609 1.896C64.8129 2.584 65.6689 3.48 66.2289 4.584L63.6849 6.336C63.3969 5.696 63.0209 5.192 62.5569 4.824C62.0929 4.456 61.5889 4.192 61.0449 4.032C60.5169 3.872 60.0049 3.792 59.5089 3.792C58.6769 3.792 57.9489 3.96 57.3249 4.296C56.7169 4.632 56.2049 5.072 55.7889 5.616C55.3729 6.16 55.0609 6.768 54.8529 7.44C54.6609 8.112 54.5649 8.784 54.5649 9.456C54.5649 10.464 54.7729 11.408 55.1889 12.288C55.6049 13.152 56.1889 13.856 56.9409 14.4C57.6929 14.944 58.5649 15.216 59.5569 15.216C60.0689 15.216 60.5969 15.128 61.1409 14.952C61.7009 14.776 62.2129 14.496 62.6769 14.112C63.1409 13.728 63.5009 13.232 63.7569 12.624L66.4689 14.184C66.1169 15.032 65.5649 15.752 64.8129 16.344C64.0609 16.92 63.2129 17.368 62.2689 17.688C61.3249 17.992 60.3889 18.144 59.4609 18.144C58.2449 18.144 57.1329 17.896 56.1249 17.4C55.1329 16.888 54.2689 16.216 53.5329 15.384C52.7969 14.536 52.2209 13.592 51.8049 12.552C51.4049 11.496 51.2049 10.432 51.2049 9.36ZM74.4557 18V0.959999H80.6477C82.5037 0.959999 84.0557 1.344 85.3037 2.112C86.5517 2.864 87.4877 3.888 88.1117 5.184C88.7357 6.464 89.0477 7.888 89.0477 9.456C89.0477 11.184 88.7037 12.688 88.0157 13.968C87.3277 15.248 86.3517 16.24 85.0877 16.944C83.8237 17.648 82.3437 18 80.6477 18H74.4557ZM85.7117 9.456C85.7117 8.352 85.5117 7.384 85.1117 6.552C84.7117 5.704 84.1357 5.048 83.3837 4.584C82.6317 4.104 81.7197 3.864 80.6477 3.864H77.7677V15.096H80.6477C81.7357 15.096 82.6557 14.856 83.4077 14.376C84.1597 13.88 84.7277 13.208 85.1117 12.36C85.5117 11.496 85.7117 10.528 85.7117 9.456ZM89.7118 6.648L90.2638 3.72H89.3038V0.48H92.5198V3.768L91.6798 6.648H89.7118ZM102.798 18.12C101.55 18.12 100.414 17.88 99.39 17.4C98.382 16.92 97.51 16.272 96.774 15.456C96.054 14.624 95.494 13.696 95.094 12.672C94.694 11.632 94.494 10.568 94.494 9.48C94.494 8.344 94.702 7.264 95.118 6.24C95.534 5.2 96.118 4.28 96.87 3.48C97.622 2.664 98.502 2.024 99.51 1.56C100.534 1.08 101.654 0.839999 102.87 0.839999C104.102 0.839999 105.222 1.088 106.23 1.584C107.254 2.08 108.126 2.744 108.846 3.576C109.582 4.408 110.142 5.344 110.526 6.384C110.926 7.408 111.126 8.456 111.126 9.528C111.126 10.648 110.918 11.728 110.502 12.768C110.086 13.792 109.502 14.712 108.75 15.528C108.014 16.328 107.134 16.96 106.11 17.424C105.102 17.888 103.998 18.12 102.798 18.12ZM97.854 9.48C97.854 10.472 98.046 11.4 98.43 12.264C98.83 13.128 99.398 13.832 100.134 14.376C100.886 14.92 101.782 15.192 102.822 15.192C103.894 15.192 104.798 14.912 105.534 14.352C106.27 13.792 106.83 13.072 107.214 12.192C107.598 11.312 107.79 10.408 107.79 9.48C107.79 8.488 107.59 7.56 107.19 6.696C106.79 5.832 106.214 5.136 105.462 4.608C104.726 4.064 103.846 3.792 102.822 3.792C101.75 3.792 100.846 4.072 100.11 4.632C99.374 5.192 98.814 5.912 98.43 6.792C98.046 7.656 97.854 8.552 97.854 9.48ZM113.667 18V0.959999H121.203C121.987 0.959999 122.707 1.12 123.363 1.44C124.035 1.76 124.611 2.192 125.091 2.736C125.587 3.28 125.963 3.888 126.219 4.56C126.491 5.232 126.627 5.92 126.627 6.624C126.627 7.712 126.347 8.712 125.787 9.624C125.243 10.536 124.499 11.192 123.555 11.592L127.443 18H123.795L120.291 12.288H116.979V18H113.667ZM116.979 9.384H121.131C121.755 9.384 122.267 9.12 122.667 8.592C123.083 8.048 123.291 7.392 123.291 6.624C123.291 6.096 123.179 5.624 122.955 5.208C122.731 4.792 122.443 4.464 122.091 4.224C121.755 3.984 121.387 3.864 120.987 3.864H116.979V9.384Z" fill="#FFBF00"/>
</svg>
