<svg width="26" height="27" viewBox="0 0 26 27" fill="none" xmlns="http://www.w3.org/2000/svg">
<g clip-path="url(#clip0_664_849)">
<path d="M12.8608 2.43198C16.1359 2.43198 16.5236 2.44798 17.8111 2.51098C18.588 2.51967 19.3575 2.67666 20.0857 2.97498C20.6172 3.19071 21.0981 3.5348 21.493 3.98198C21.8996 4.4179 22.2134 4.94759 22.4119 5.53298C22.6823 6.33502 22.8248 7.18248 22.8332 8.03797C22.8904 9.46197 22.905 9.88897 22.905 13.491C22.905 17.093 22.8904 17.525 22.8332 18.944C22.8253 19.7995 22.6828 20.6471 22.4119 21.449C22.2166 22.0352 21.9041 22.5656 21.4976 23.001C21.1019 23.4485 20.6213 23.7941 20.0902 24.013C19.3619 24.3106 18.5924 24.4676 17.8157 24.477C16.5227 24.54 16.135 24.556 12.8644 24.556C9.59382 24.556 9.20157 24.54 7.91313 24.477C7.13631 24.4683 6.36673 24.3113 5.63862 24.013C5.10799 23.7952 4.62834 23.4495 4.23487 23.001C3.82854 22.5653 3.51475 22.0359 3.31598 21.451C3.04569 20.6489 2.90316 19.8015 2.89467 18.946C2.83747 17.522 2.82294 17.095 2.82294 13.493C2.82294 9.89097 2.83747 9.45897 2.89467 8.03997C2.90256 7.18443 3.04511 6.33687 3.31598 5.53498C3.51105 4.95094 3.82186 4.42212 4.22579 3.98698C4.6216 3.53924 5.10255 3.19363 5.63408 2.97498C6.36233 2.6772 7.13182 2.52023 7.90859 2.51098C9.19612 2.44798 9.58474 2.43198 12.8599 2.43198H12.8608ZM12.8608 0.000976562C9.53208 0.000976562 9.11622 0.0169766 7.80872 0.0799765C6.7926 0.101848 5.7873 0.314219 4.83596 0.707976C4.01625 1.04654 3.27415 1.57946 2.66223 2.26898C2.03754 2.94184 1.55382 3.75682 1.24485 4.65698C0.887771 5.70521 0.694956 6.81262 0.674636 7.93197C0.617433 9.37697 0.602905 9.83497 0.602905 13.501C0.602905 17.167 0.617433 17.624 0.674636 19.065C0.694495 20.1841 0.887327 21.2912 1.24485 22.339C1.55256 23.2416 2.0364 24.0588 2.66223 24.733C3.27372 25.4195 4.01405 25.9506 4.83142 26.289C5.78291 26.6821 6.78812 26.8945 7.80418 26.917C9.11077 26.98 9.52936 26.996 12.8562 26.996C16.1831 26.996 16.6008 26.98 17.9083 26.917C18.9244 26.8951 19.9297 26.6827 20.881 26.289C21.6943 25.9423 22.4329 25.4124 23.0496 24.7332C23.6662 24.0541 24.1474 23.2407 24.4622 22.345C24.8191 21.2971 25.012 20.19 25.0324 19.071C25.0896 17.632 25.1041 17.171 25.1041 13.507C25.1041 9.84297 25.0896 9.38397 25.0324 7.94297C25.0125 6.8239 24.8197 5.71672 24.4622 4.66898C24.1665 3.76183 23.6867 2.94098 23.0593 2.26898C22.4482 1.58221 21.7082 1.05082 20.891 0.711976C19.9393 0.318709 18.9337 0.106355 17.9174 0.0839765C16.6062 0.0159766 16.1895 0.000976562 12.8608 0.000976562Z" fill="#FFBE00"/>
<path d="M12.8608 6.56592C11.6153 6.56592 10.3979 6.97265 9.36238 7.73468C8.32686 8.4967 7.51977 9.5798 7.04317 10.847C6.56657 12.1142 6.44187 13.5086 6.68484 14.8539C6.92781 16.1991 7.52753 17.4348 8.40817 18.4047C9.28881 19.3746 10.4108 20.0351 11.6323 20.3027C12.8538 20.5703 14.1199 20.4329 15.2705 19.908C16.4211 19.3831 17.4045 18.4943 18.0964 17.3538C18.7884 16.2133 19.1577 14.8725 19.1577 13.5009C19.1574 11.6617 18.4939 9.89793 17.3131 8.59743C16.1322 7.29692 14.5307 6.56618 12.8608 6.56592V6.56592ZM12.8608 17.9979C12.0526 17.9979 11.2627 17.734 10.5907 17.2395C9.91879 16.7451 9.39508 16.0423 9.08583 15.22C8.77657 14.3977 8.69565 13.4929 8.85331 12.62C9.01097 11.7471 9.40012 10.9453 9.97155 10.3159C10.543 9.6866 11.271 9.25802 12.0636 9.08438C12.8562 8.91075 13.6778 8.99987 14.4244 9.34046C15.171 9.68105 15.8091 10.2578 16.2581 10.9979C16.7071 11.7379 16.9467 12.6079 16.9467 13.4979C16.9467 14.0889 16.841 14.674 16.6357 15.22C16.4303 15.766 16.1294 16.262 15.75 16.6799C15.3705 17.0978 14.9201 17.4292 14.4244 17.6554C13.9287 17.8815 13.3973 17.9979 12.8608 17.9979V17.9979Z" fill="#FFBE00"/>
<path d="M20.8747 6.2921C20.8747 6.6123 20.7885 6.92532 20.627 7.19156C20.4654 7.45781 20.2358 7.66532 19.9672 7.78786C19.6986 7.91039 19.403 7.94246 19.1179 7.87999C18.8327 7.81752 18.5708 7.66332 18.3652 7.4369C18.1596 7.21048 18.0196 6.922 17.9629 6.60795C17.9062 6.29389 17.9353 5.96836 18.0465 5.67253C18.1578 5.3767 18.3462 5.12384 18.588 4.94595C18.8297 4.76805 19.1139 4.6731 19.4047 4.6731C19.7945 4.6731 20.1685 4.84367 20.4441 5.14729C20.7198 5.45091 20.8747 5.86271 20.8747 6.2921Z" fill="#FFBE00"/>
</g>
<defs>
<clipPath id="clip0_664_849">
<rect width="24.5012" height="26.995" fill="white" transform="translate(0.602905)"/>
</clipPath>
</defs>
</svg>
