<svg width="224" height="155" viewBox="0 0 224 155" fill="none" xmlns="http://www.w3.org/2000/svg">
<path d="M13.608 19.624V22H1.92V4.96H13.392V7.336H4.608V12.184H12.216V14.416H4.608V19.624H13.608ZM27.2072 22H24.5672V14.968C24.5672 13.784 24.3752 12.928 23.9912 12.4C23.6232 11.856 23.0712 11.584 22.3352 11.584C21.8232 11.584 21.3112 11.712 20.7992 11.968C20.3032 12.224 19.8552 12.576 19.4552 13.024C19.0552 13.472 18.7672 13.976 18.5912 14.536V22H15.9512V9.448H18.3512V11.968C18.8312 11.136 19.5272 10.472 20.4392 9.976C21.3512 9.48 22.3592 9.232 23.4632 9.232C24.4552 9.232 25.2232 9.472 25.7672 9.952C26.3112 10.416 26.6872 11.032 26.8952 11.8C27.1032 12.568 27.2072 13.416 27.2072 14.344V22ZM40.6652 22.24C39.6092 22.24 38.6092 22.064 37.6652 21.712C36.7212 21.36 35.9132 20.848 35.2412 20.176L36.2252 18.4C36.9452 19.04 37.6652 19.504 38.3852 19.792C39.1052 20.08 39.8332 20.224 40.5692 20.224C41.3052 20.224 41.9052 20.088 42.3692 19.816C42.8332 19.528 43.0652 19.112 43.0652 18.568C43.0652 18.184 42.9452 17.888 42.7052 17.68C42.4652 17.472 42.1132 17.304 41.6492 17.176C41.2012 17.048 40.6572 16.888 40.0172 16.696C39.1212 16.424 38.3692 16.144 37.7612 15.856C37.1532 15.552 36.6972 15.184 36.3932 14.752C36.0892 14.32 35.9372 13.768 35.9372 13.096C35.9372 11.88 36.3932 10.936 37.3052 10.264C38.2172 9.576 39.4092 9.232 40.8812 9.232C41.7932 9.232 42.6332 9.376 43.4012 9.664C44.1852 9.936 44.8732 10.368 45.4652 10.96L44.3372 12.712C43.2492 11.72 42.0492 11.224 40.7372 11.224C40.1612 11.224 39.6252 11.336 39.1292 11.56C38.6492 11.784 38.4092 12.2 38.4092 12.808C38.4092 13.32 38.6252 13.688 39.0572 13.912C39.4892 14.136 40.1292 14.376 40.9772 14.632C41.9372 14.92 42.7612 15.208 43.4492 15.496C44.1532 15.768 44.6892 16.128 45.0572 16.576C45.4412 17.008 45.6332 17.608 45.6332 18.376C45.6332 19.592 45.1772 20.544 44.2652 21.232C43.3532 21.904 42.1532 22.24 40.6652 22.24ZM47.0783 18.328C47.0783 17.528 47.3023 16.832 47.7503 16.24C48.1983 15.632 48.8223 15.168 49.6223 14.848C50.4383 14.512 51.3743 14.344 52.4303 14.344C52.9903 14.344 53.5583 14.392 54.1343 14.488C54.7263 14.568 55.2463 14.688 55.6943 14.848V14.056C55.6943 13.176 55.4303 12.488 54.9023 11.992C54.3743 11.496 53.6143 11.248 52.6223 11.248C51.9343 11.248 51.2703 11.368 50.6303 11.608C49.9903 11.848 49.3263 12.2 48.6383 12.664L47.7503 10.888C48.5823 10.344 49.4143 9.936 50.2463 9.664C51.0943 9.376 51.9823 9.232 52.9103 9.232C54.5903 9.232 55.9103 9.68 56.8703 10.576C57.8463 11.456 58.3343 12.712 58.3343 14.344V19.024C58.3343 19.328 58.3823 19.544 58.4783 19.672C58.5903 19.8 58.7743 19.872 59.0303 19.888V22C58.7903 22.048 58.5743 22.08 58.3823 22.096C58.1903 22.112 58.0303 22.12 57.9023 22.12C57.3263 22.12 56.8943 21.984 56.6063 21.712C56.3343 21.424 56.1743 21.104 56.1263 20.752L56.0543 20.032C55.5103 20.736 54.8143 21.28 53.9663 21.664C53.1183 22.048 52.2623 22.24 51.3983 22.24C50.5663 22.24 49.8223 22.072 49.1663 21.736C48.5103 21.384 47.9983 20.912 47.6303 20.32C47.2623 19.728 47.0783 19.064 47.0783 18.328ZM55.0703 19.096C55.4863 18.68 55.6943 18.288 55.6943 17.92V16.48C54.7503 16.128 53.7903 15.952 52.8143 15.952C51.8543 15.952 51.0703 16.152 50.4623 16.552C49.8703 16.936 49.5742 17.456 49.5742 18.112C49.5742 18.656 49.7903 19.16 50.2223 19.624C50.6703 20.072 51.3103 20.296 52.1423 20.296C52.7023 20.296 53.2463 20.184 53.7743 19.96C54.3023 19.736 54.7343 19.448 55.0703 19.096ZM64.6193 22L59.8433 9.448H62.5793L66.1553 19.552L69.7313 9.448H72.2753L67.4993 22H64.6193ZM79.3881 22.24C78.0761 22.24 76.9321 21.944 75.9561 21.352C74.9961 20.744 74.2521 19.952 73.7241 18.976C73.1961 17.984 72.9321 16.904 72.9321 15.736C72.9321 14.568 73.1961 13.496 73.7241 12.52C74.2681 11.528 75.0201 10.736 75.9801 10.144C76.9561 9.536 78.0921 9.232 79.3881 9.232C80.6841 9.232 81.8121 9.536 82.7721 10.144C83.7481 10.736 84.5001 11.528 85.0281 12.52C85.5721 13.496 85.8441 14.568 85.8441 15.736C85.8441 16.904 85.5801 17.984 85.0521 18.976C84.5241 19.952 83.7721 20.744 82.7961 21.352C81.8361 21.944 80.7001 22.24 79.3881 22.24ZM75.6441 15.76C75.6441 16.56 75.8121 17.28 76.1481 17.92C76.4841 18.56 76.9321 19.064 77.4921 19.432C78.0521 19.8 78.6841 19.984 79.3881 19.984C80.0761 19.984 80.7001 19.8 81.2601 19.432C81.8361 19.048 82.2921 18.536 82.6281 17.896C82.9641 17.256 83.1321 16.536 83.1321 15.736C83.1321 14.936 82.9641 14.216 82.6281 13.576C82.2921 12.936 81.8361 12.432 81.2601 12.064C80.7001 11.68 80.0761 11.488 79.3881 11.488C78.7001 11.488 78.0681 11.68 77.4921 12.064C76.9321 12.432 76.4841 12.944 76.1481 13.6C75.8121 14.24 75.6441 14.96 75.6441 15.76ZM88.1856 7.384V4.48H90.8256V7.384H88.1856ZM88.1856 22V9.448H90.8256V22H88.1856ZM101.054 11.728C100.03 11.76 99.1181 12 98.3181 12.448C97.5341 12.88 96.9741 13.504 96.6381 14.32V22H93.9981V9.448H96.4461V12.256C96.8781 11.392 97.4461 10.704 98.1501 10.192C98.8541 9.664 99.5981 9.376 100.382 9.328C100.526 9.328 100.654 9.328 100.766 9.328C100.878 9.328 100.974 9.336 101.054 9.352V11.728ZM115.493 22.24C114.485 22.24 113.597 22 112.829 21.52C112.061 21.04 111.453 20.416 111.005 19.648V27.112H108.365V9.448H110.693V11.704C111.173 10.952 111.797 10.352 112.565 9.904C113.333 9.456 114.189 9.232 115.133 9.232C116.285 9.232 117.301 9.536 118.181 10.144C119.077 10.736 119.781 11.528 120.293 12.52C120.805 13.496 121.061 14.56 121.061 15.712C121.061 16.928 120.821 18.032 120.341 19.024C119.861 20 119.205 20.784 118.373 21.376C117.541 21.952 116.581 22.24 115.493 22.24ZM114.629 19.984C115.381 19.984 116.029 19.784 116.573 19.384C117.133 18.968 117.565 18.44 117.869 17.8C118.189 17.144 118.349 16.448 118.349 15.712C118.349 14.944 118.173 14.24 117.821 13.6C117.485 12.96 117.021 12.448 116.429 12.064C115.853 11.68 115.189 11.488 114.437 11.488C113.989 11.488 113.517 11.6 113.021 11.824C112.541 12.048 112.117 12.344 111.749 12.712C111.381 13.08 111.133 13.496 111.005 13.96V17.248C111.325 18.016 111.813 18.664 112.469 19.192C113.141 19.72 113.861 19.984 114.629 19.984ZM123.46 4.48H126.1V18.376C126.1 19.016 126.196 19.424 126.388 19.6C126.58 19.776 126.82 19.864 127.108 19.864C127.428 19.864 127.732 19.832 128.02 19.768C128.308 19.704 128.548 19.624 128.74 19.528L129.124 21.616C128.74 21.776 128.284 21.912 127.756 22.024C127.228 22.136 126.756 22.192 126.34 22.192C125.444 22.192 124.74 21.944 124.228 21.448C123.716 20.936 123.46 20.232 123.46 19.336V4.48ZM130.534 17.128V9.448H133.174V16.6C133.174 18.856 133.974 19.984 135.574 19.984C136.326 19.984 137.038 19.752 137.71 19.288C138.382 18.808 138.902 18.136 139.27 17.272V9.448H141.91V19.024C141.91 19.328 141.966 19.544 142.078 19.672C142.19 19.8 142.374 19.872 142.63 19.888V22C142.358 22.048 142.134 22.08 141.958 22.096C141.782 22.112 141.614 22.12 141.454 22.12C140.974 22.12 140.574 21.992 140.254 21.736C139.934 21.48 139.75 21.136 139.702 20.704L139.654 19.456C139.094 20.368 138.366 21.064 137.47 21.544C136.574 22.008 135.59 22.24 134.518 22.24C133.206 22.24 132.214 21.808 131.542 20.944C130.87 20.08 130.534 18.808 130.534 17.128ZM149.743 22.24C148.687 22.24 147.687 22.064 146.743 21.712C145.799 21.36 144.991 20.848 144.319 20.176L145.303 18.4C146.023 19.04 146.743 19.504 147.463 19.792C148.183 20.08 148.911 20.224 149.647 20.224C150.383 20.224 150.983 20.088 151.447 19.816C151.911 19.528 152.143 19.112 152.143 18.568C152.143 18.184 152.023 17.888 151.783 17.68C151.543 17.472 151.191 17.304 150.727 17.176C150.279 17.048 149.735 16.888 149.095 16.696C148.199 16.424 147.447 16.144 146.839 15.856C146.231 15.552 145.775 15.184 145.471 14.752C145.167 14.32 145.015 13.768 145.015 13.096C145.015 11.88 145.471 10.936 146.383 10.264C147.295 9.576 148.487 9.232 149.959 9.232C150.871 9.232 151.711 9.376 152.479 9.664C153.263 9.936 153.951 10.368 154.543 10.96L153.415 12.712C152.327 11.72 151.127 11.224 149.815 11.224C149.239 11.224 148.703 11.336 148.207 11.56C147.727 11.784 147.487 12.2 147.487 12.808C147.487 13.32 147.703 13.688 148.135 13.912C148.567 14.136 149.207 14.376 150.055 14.632C151.015 14.92 151.839 15.208 152.527 15.496C153.231 15.768 153.767 16.128 154.135 16.576C154.519 17.008 154.711 17.608 154.711 18.376C154.711 19.592 154.255 20.544 153.343 21.232C152.431 21.904 151.231 22.24 149.743 22.24ZM167.462 22.24C166.406 22.24 165.406 22.064 164.462 21.712C163.518 21.36 162.71 20.848 162.038 20.176L163.022 18.4C163.742 19.04 164.462 19.504 165.182 19.792C165.902 20.08 166.63 20.224 167.366 20.224C168.102 20.224 168.702 20.088 169.166 19.816C169.63 19.528 169.862 19.112 169.862 18.568C169.862 18.184 169.742 17.888 169.502 17.68C169.262 17.472 168.91 17.304 168.446 17.176C167.998 17.048 167.454 16.888 166.814 16.696C165.918 16.424 165.166 16.144 164.558 15.856C163.95 15.552 163.494 15.184 163.19 14.752C162.886 14.32 162.734 13.768 162.734 13.096C162.734 11.88 163.19 10.936 164.102 10.264C165.014 9.576 166.206 9.232 167.678 9.232C168.59 9.232 169.43 9.376 170.198 9.664C170.982 9.936 171.67 10.368 172.262 10.96L171.134 12.712C170.046 11.72 168.846 11.224 167.534 11.224C166.958 11.224 166.422 11.336 165.926 11.56C165.446 11.784 165.206 12.2 165.206 12.808C165.206 13.32 165.422 13.688 165.854 13.912C166.286 14.136 166.926 14.376 167.774 14.632C168.734 14.92 169.558 15.208 170.246 15.496C170.95 15.768 171.486 16.128 171.854 16.576C172.238 17.008 172.43 17.608 172.43 18.376C172.43 19.592 171.974 20.544 171.062 21.232C170.15 21.904 168.95 22.24 167.462 22.24ZM174.667 17.128V9.448H177.307V16.6C177.307 18.856 178.107 19.984 179.707 19.984C180.459 19.984 181.171 19.752 181.843 19.288C182.515 18.808 183.035 18.136 183.403 17.272V9.448H186.043V19.024C186.043 19.328 186.099 19.544 186.211 19.672C186.323 19.8 186.507 19.872 186.763 19.888V22C186.491 22.048 186.267 22.08 186.091 22.096C185.915 22.112 185.747 22.12 185.587 22.12C185.107 22.12 184.707 21.992 184.387 21.736C184.067 21.48 183.883 21.136 183.835 20.704L183.787 19.456C183.227 20.368 182.499 21.064 181.603 21.544C180.707 22.008 179.723 22.24 178.651 22.24C177.339 22.24 176.347 21.808 175.675 20.944C175.003 20.08 174.667 18.808 174.667 17.128ZM196.468 11.728C195.444 11.76 194.532 12 193.732 12.448C192.948 12.88 192.388 13.504 192.052 14.32V22H189.412V9.448H191.86V12.256C192.292 11.392 192.86 10.704 193.564 10.192C194.268 9.664 195.012 9.376 195.796 9.328C195.94 9.328 196.068 9.328 196.18 9.328C196.292 9.328 196.388 9.336 196.468 9.352V11.728ZM203.803 4.48H206.443V18.376C206.443 19.016 206.539 19.424 206.731 19.6C206.923 19.776 207.163 19.864 207.451 19.864C207.771 19.864 208.075 19.832 208.363 19.768C208.651 19.704 208.891 19.624 209.083 19.528L209.467 21.616C209.083 21.776 208.627 21.912 208.099 22.024C207.571 22.136 207.099 22.192 206.683 22.192C205.787 22.192 205.083 21.944 204.571 21.448C204.059 20.936 203.803 20.232 203.803 19.336V4.48ZM216.686 22.24C215.39 22.24 214.254 21.944 213.278 21.352C212.302 20.76 211.542 19.976 210.998 19C210.454 18.008 210.182 16.928 210.182 15.76C210.182 14.576 210.454 13.488 210.998 12.496C211.542 11.504 212.302 10.712 213.278 10.12C214.254 9.528 215.398 9.232 216.71 9.232C218.022 9.232 219.158 9.536 220.118 10.144C221.078 10.736 221.814 11.52 222.326 12.496C222.854 13.472 223.118 14.52 223.118 15.64C223.118 16.04 223.094 16.36 223.046 16.6H212.99C213.038 17.336 213.238 17.984 213.59 18.544C213.958 19.088 214.414 19.52 214.958 19.84C215.518 20.144 216.126 20.296 216.782 20.296C217.486 20.296 218.15 20.12 218.774 19.768C219.398 19.416 219.83 18.952 220.07 18.376L222.326 19.024C221.894 19.968 221.174 20.744 220.166 21.352C219.174 21.944 218.014 22.24 216.686 22.24ZM212.918 14.848H220.502C220.438 14.128 220.23 13.496 219.878 12.952C219.526 12.392 219.07 11.96 218.51 11.656C217.966 11.336 217.358 11.176 216.686 11.176C216.03 11.176 215.422 11.336 214.862 11.656C214.318 11.96 213.87 12.392 213.518 12.952C213.166 13.496 212.966 14.128 212.918 14.848ZM8.64 39.728C7.616 39.76 6.704 40 5.904 40.448C5.12 40.88 4.56 41.504 4.224 42.32V50H1.584V37.448H4.032V40.256C4.464 39.392 5.032 38.704 5.736 38.192C6.44 37.664 7.184 37.376 7.968 37.328C8.112 37.328 8.24 37.328 8.352 37.328C8.464 37.328 8.56 37.336 8.64 37.352V39.728ZM16.0376 50.24C14.7416 50.24 13.6056 49.944 12.6296 49.352C11.6536 48.76 10.8936 47.976 10.3496 47C9.80563 46.008 9.53363 44.928 9.53363 43.76C9.53363 42.576 9.80563 41.488 10.3496 40.496C10.8936 39.504 11.6536 38.712 12.6296 38.12C13.6056 37.528 14.7496 37.232 16.0616 37.232C17.3736 37.232 18.5096 37.536 19.4696 38.144C20.4296 38.736 21.1656 39.52 21.6776 40.496C22.2056 41.472 22.4696 42.52 22.4696 43.64C22.4696 44.04 22.4456 44.36 22.3976 44.6H12.3416C12.3896 45.336 12.5896 45.984 12.9416 46.544C13.3096 47.088 13.7656 47.52 14.3096 47.84C14.8696 48.144 15.4776 48.296 16.1336 48.296C16.8376 48.296 17.5016 48.12 18.1256 47.768C18.7496 47.416 19.1816 46.952 19.4216 46.376L21.6776 47.024C21.2456 47.968 20.5256 48.744 19.5176 49.352C18.5256 49.944 17.3656 50.24 16.0376 50.24ZM12.2696 42.848H19.8536C19.7896 42.128 19.5816 41.496 19.2296 40.952C18.8776 40.392 18.4216 39.96 17.8616 39.656C17.3176 39.336 16.7096 39.176 16.0376 39.176C15.3816 39.176 14.7736 39.336 14.2136 39.656C13.6696 39.96 13.2216 40.392 12.8696 40.952C12.5176 41.496 12.3176 42.128 12.2696 42.848ZM16.8776 35.648L15.1496 35.12L16.5176 32.48H19.0376L16.8776 35.648ZM23.7111 46.328C23.7111 45.528 23.9351 44.832 24.3831 44.24C24.8311 43.632 25.4551 43.168 26.2551 42.848C27.0711 42.512 28.0071 42.344 29.0631 42.344C29.6231 42.344 30.1911 42.392 30.7671 42.488C31.3591 42.568 31.8791 42.688 32.3271 42.848V42.056C32.3271 41.176 32.0631 40.488 31.5351 39.992C31.0071 39.496 30.2471 39.248 29.2551 39.248C28.5671 39.248 27.9031 39.368 27.2631 39.608C26.6231 39.848 25.9591 40.2 25.2711 40.664L24.3831 38.888C25.2151 38.344 26.0471 37.936 26.8791 37.664C27.7271 37.376 28.6151 37.232 29.5431 37.232C31.2231 37.232 32.5431 37.68 33.5031 38.576C34.4791 39.456 34.9671 40.712 34.9671 42.344V47.024C34.9671 47.328 35.0151 47.544 35.1111 47.672C35.2231 47.8 35.4071 47.872 35.6631 47.888V50C35.4231 50.048 35.2071 50.08 35.0151 50.096C34.8231 50.112 34.6631 50.12 34.5351 50.12C33.9591 50.12 33.5271 49.984 33.2391 49.712C32.9671 49.424 32.8071 49.104 32.7591 48.752L32.6871 48.032C32.1431 48.736 31.4471 49.28 30.5991 49.664C29.7511 50.048 28.8951 50.24 28.0311 50.24C27.1991 50.24 26.4551 50.072 25.7991 49.736C25.1431 49.384 24.6311 48.912 24.2631 48.32C23.8951 47.728 23.7111 47.064 23.7111 46.328ZM31.7031 47.096C32.1191 46.68 32.3271 46.288 32.3271 45.92V44.48C31.3831 44.128 30.4231 43.952 29.4471 43.952C28.4871 43.952 27.7031 44.152 27.0951 44.552C26.5031 44.936 26.2071 45.456 26.2071 46.112C26.2071 46.656 26.4231 47.16 26.8551 47.624C27.3031 48.072 27.9431 48.296 28.7751 48.296C29.3351 48.296 29.8791 48.184 30.4071 47.96C30.9351 47.736 31.3671 47.448 31.7031 47.096ZM38.1939 32.48H40.8339V46.376C40.8339 47.016 40.9299 47.424 41.1219 47.6C41.3139 47.776 41.5539 47.864 41.8419 47.864C42.1619 47.864 42.4659 47.832 42.7539 47.768C43.0419 47.704 43.2819 47.624 43.4739 47.528L43.8579 49.616C43.4739 49.776 43.0179 49.912 42.4899 50.024C41.9619 50.136 41.4899 50.192 41.0739 50.192C40.1779 50.192 39.4739 49.944 38.9619 49.448C38.4499 48.936 38.1939 48.232 38.1939 47.336V32.48ZM45.3887 35.384V32.48H48.0287V35.384H45.3887ZM45.3887 50V37.448H48.0287V50H45.3887ZM55.6652 50.24C54.6092 50.24 53.6092 50.064 52.6652 49.712C51.7212 49.36 50.9132 48.848 50.2412 48.176L51.2252 46.4C51.9452 47.04 52.6652 47.504 53.3852 47.792C54.1052 48.08 54.8332 48.224 55.5692 48.224C56.3052 48.224 56.9052 48.088 57.3692 47.816C57.8332 47.528 58.0652 47.112 58.0652 46.568C58.0652 46.184 57.9452 45.888 57.7052 45.68C57.4652 45.472 57.1132 45.304 56.6492 45.176C56.2012 45.048 55.6572 44.888 55.0172 44.696C54.1212 44.424 53.3692 44.144 52.7612 43.856C52.1532 43.552 51.6972 43.184 51.3932 42.752C51.0892 42.32 50.9372 41.768 50.9372 41.096C50.9372 39.88 51.3932 38.936 52.3052 38.264C53.2172 37.576 54.4092 37.232 55.8812 37.232C56.7932 37.232 57.6332 37.376 58.4012 37.664C59.1852 37.936 59.8732 38.368 60.4652 38.96L59.3372 40.712C58.2492 39.72 57.0492 39.224 55.7372 39.224C55.1612 39.224 54.6252 39.336 54.1292 39.56C53.6492 39.784 53.4092 40.2 53.4092 40.808C53.4092 41.32 53.6252 41.688 54.0572 41.912C54.4892 42.136 55.1292 42.376 55.9772 42.632C56.9372 42.92 57.7612 43.208 58.4492 43.496C59.1532 43.768 59.6892 44.128 60.0572 44.576C60.4412 45.008 60.6332 45.608 60.6332 46.376C60.6332 47.592 60.1772 48.544 59.2652 49.232C58.3532 49.904 57.1532 50.24 55.6652 50.24ZM62.0783 46.328C62.0783 45.528 62.3023 44.832 62.7503 44.24C63.1983 43.632 63.8223 43.168 64.6223 42.848C65.4383 42.512 66.3743 42.344 67.4303 42.344C67.9903 42.344 68.5583 42.392 69.1343 42.488C69.7263 42.568 70.2463 42.688 70.6943 42.848V42.056C70.6943 41.176 70.4303 40.488 69.9023 39.992C69.3743 39.496 68.6143 39.248 67.6223 39.248C66.9343 39.248 66.2703 39.368 65.6303 39.608C64.9903 39.848 64.3263 40.2 63.6383 40.664L62.7503 38.888C63.5823 38.344 64.4143 37.936 65.2463 37.664C66.0943 37.376 66.9823 37.232 67.9103 37.232C69.5903 37.232 70.9103 37.68 71.8703 38.576C72.8463 39.456 73.3343 40.712 73.3343 42.344V47.024C73.3343 47.328 73.3823 47.544 73.4783 47.672C73.5903 47.8 73.7743 47.872 74.0303 47.888V50C73.7903 50.048 73.5743 50.08 73.3823 50.096C73.1903 50.112 73.0303 50.12 72.9023 50.12C72.3263 50.12 71.8943 49.984 71.6063 49.712C71.3343 49.424 71.1743 49.104 71.1263 48.752L71.0543 48.032C70.5103 48.736 69.8143 49.28 68.9663 49.664C68.1183 50.048 67.2623 50.24 66.3983 50.24C65.5663 50.24 64.8223 50.072 64.1663 49.736C63.5103 49.384 62.9983 48.912 62.6303 48.32C62.2623 47.728 62.0783 47.064 62.0783 46.328ZM70.0703 47.096C70.4863 46.68 70.6943 46.288 70.6943 45.92V44.48C69.7503 44.128 68.7903 43.952 67.8143 43.952C66.8543 43.952 66.0703 44.152 65.4623 44.552C64.8703 44.936 64.5742 45.456 64.5742 46.112C64.5742 46.656 64.7903 47.16 65.2223 47.624C65.6703 48.072 66.3103 48.296 67.1423 48.296C67.7023 48.296 68.2463 48.184 68.7743 47.96C69.3023 47.736 69.7343 47.448 70.0703 47.096ZM83.4274 49.352C83.0914 49.512 82.6274 49.696 82.0354 49.904C81.4434 50.096 80.8114 50.192 80.1394 50.192C79.3074 50.192 78.5874 49.968 77.9794 49.52C77.3874 49.072 77.0914 48.344 77.0914 47.336V39.488H75.4354V37.448H77.0914V33.32H79.7314V37.448H82.4674V39.488H79.7314V46.496C79.7634 46.944 79.8994 47.272 80.1394 47.48C80.3954 47.672 80.7074 47.768 81.0754 47.768C81.4434 47.768 81.7954 47.704 82.1314 47.576C82.4674 47.448 82.7154 47.344 82.8754 47.264L83.4274 49.352ZM90.7798 50.24C89.4838 50.24 88.3478 49.944 87.3718 49.352C86.3958 48.76 85.6358 47.976 85.0918 47C84.5478 46.008 84.2758 44.928 84.2758 43.76C84.2758 42.576 84.5478 41.488 85.0918 40.496C85.6358 39.504 86.3958 38.712 87.3718 38.12C88.3478 37.528 89.4918 37.232 90.8038 37.232C92.1158 37.232 93.2518 37.536 94.2118 38.144C95.1718 38.736 95.9078 39.52 96.4198 40.496C96.9478 41.472 97.2118 42.52 97.2118 43.64C97.2118 44.04 97.1878 44.36 97.1398 44.6H87.0838C87.1318 45.336 87.3318 45.984 87.6838 46.544C88.0518 47.088 88.5078 47.52 89.0518 47.84C89.6118 48.144 90.2198 48.296 90.8758 48.296C91.5798 48.296 92.2438 48.12 92.8678 47.768C93.4918 47.416 93.9238 46.952 94.1638 46.376L96.4198 47.024C95.9878 47.968 95.2678 48.744 94.2598 49.352C93.2678 49.944 92.1078 50.24 90.7798 50.24ZM87.0118 42.848H94.5958C94.5318 42.128 94.3238 41.496 93.9718 40.952C93.6198 40.392 93.1638 39.96 92.6038 39.656C92.0598 39.336 91.4518 39.176 90.7798 39.176C90.1238 39.176 89.5158 39.336 88.9558 39.656C88.4118 39.96 87.9638 40.392 87.6118 40.952C87.2598 41.496 87.0598 42.128 87.0118 42.848ZM99.2453 45.128V37.448H101.885V44.6C101.885 46.856 102.685 47.984 104.285 47.984C105.037 47.984 105.749 47.752 106.421 47.288C107.093 46.808 107.613 46.136 107.981 45.272V37.448H110.621V47.024C110.621 47.328 110.677 47.544 110.789 47.672C110.901 47.8 111.085 47.872 111.341 47.888V50C111.069 50.048 110.845 50.08 110.669 50.096C110.493 50.112 110.325 50.12 110.165 50.12C109.685 50.12 109.285 49.992 108.965 49.736C108.645 49.48 108.461 49.136 108.413 48.704L108.365 47.456C107.805 48.368 107.077 49.064 106.181 49.544C105.285 50.008 104.301 50.24 103.229 50.24C101.917 50.24 100.925 49.808 100.253 48.944C99.5813 48.08 99.2453 46.808 99.2453 45.128ZM121.046 39.728C120.022 39.76 119.11 40 118.31 40.448C117.526 40.88 116.966 41.504 116.63 42.32V50H113.99V37.448H116.438V40.256C116.87 39.392 117.438 38.704 118.142 38.192C118.846 37.664 119.59 37.376 120.374 37.328C120.518 37.328 120.646 37.328 120.758 37.328C120.87 37.328 120.966 37.336 121.046 37.352V39.728ZM122.967 40.616V37.568H125.151V40.616H122.967ZM122.967 50V46.928H125.151V50H122.967Z" fill="#685854"/>
<path d="M13.608 108.624V111H1.92V93.96H13.392V96.336H4.608V101.184H12.216V103.416H4.608V108.624H13.608ZM27.2072 111H24.5672V103.968C24.5672 102.784 24.3752 101.928 23.9912 101.4C23.6232 100.856 23.0712 100.584 22.3352 100.584C21.8232 100.584 21.3112 100.712 20.7992 100.968C20.3032 101.224 19.8552 101.576 19.4552 102.024C19.0552 102.472 18.7672 102.976 18.5912 103.536V111H15.9512V98.448H18.3512V100.968C18.8312 100.136 19.5272 99.472 20.4392 98.976C21.3512 98.48 22.3592 98.232 23.4632 98.232C24.4552 98.232 25.2232 98.472 25.7672 98.952C26.3112 99.416 26.6872 100.032 26.8952 100.8C27.1032 101.568 27.2072 102.416 27.2072 103.344V111ZM40.6652 111.24C39.6092 111.24 38.6092 111.064 37.6652 110.712C36.7212 110.36 35.9132 109.848 35.2412 109.176L36.2252 107.4C36.9452 108.04 37.6652 108.504 38.3852 108.792C39.1052 109.08 39.8332 109.224 40.5692 109.224C41.3052 109.224 41.9052 109.088 42.3692 108.816C42.8332 108.528 43.0652 108.112 43.0652 107.568C43.0652 107.184 42.9452 106.888 42.7052 106.68C42.4652 106.472 42.1132 106.304 41.6492 106.176C41.2012 106.048 40.6572 105.888 40.0172 105.696C39.1212 105.424 38.3692 105.144 37.7612 104.856C37.1532 104.552 36.6972 104.184 36.3932 103.752C36.0892 103.32 35.9372 102.768 35.9372 102.096C35.9372 100.88 36.3932 99.936 37.3052 99.264C38.2172 98.576 39.4092 98.232 40.8812 98.232C41.7932 98.232 42.6332 98.376 43.4012 98.664C44.1852 98.936 44.8732 99.368 45.4652 99.96L44.3372 101.712C43.2492 100.72 42.0492 100.224 40.7372 100.224C40.1612 100.224 39.6252 100.336 39.1292 100.56C38.6492 100.784 38.4092 101.2 38.4092 101.808C38.4092 102.32 38.6252 102.688 39.0572 102.912C39.4892 103.136 40.1292 103.376 40.9772 103.632C41.9372 103.92 42.7612 104.208 43.4492 104.496C44.1532 104.768 44.6892 105.128 45.0572 105.576C45.4412 106.008 45.6332 106.608 45.6332 107.376C45.6332 108.592 45.1772 109.544 44.2652 110.232C43.3532 110.904 42.1532 111.24 40.6652 111.24ZM47.0783 107.328C47.0783 106.528 47.3023 105.832 47.7503 105.24C48.1983 104.632 48.8223 104.168 49.6223 103.848C50.4383 103.512 51.3743 103.344 52.4303 103.344C52.9903 103.344 53.5583 103.392 54.1343 103.488C54.7263 103.568 55.2463 103.688 55.6943 103.848V103.056C55.6943 102.176 55.4303 101.488 54.9023 100.992C54.3743 100.496 53.6143 100.248 52.6223 100.248C51.9343 100.248 51.2703 100.368 50.6303 100.608C49.9903 100.848 49.3263 101.2 48.6383 101.664L47.7503 99.888C48.5823 99.344 49.4143 98.936 50.2463 98.664C51.0943 98.376 51.9823 98.232 52.9103 98.232C54.5903 98.232 55.9103 98.68 56.8703 99.576C57.8463 100.456 58.3343 101.712 58.3343 103.344V108.024C58.3343 108.328 58.3823 108.544 58.4783 108.672C58.5903 108.8 58.7743 108.872 59.0303 108.888V111C58.7903 111.048 58.5743 111.08 58.3823 111.096C58.1903 111.112 58.0303 111.12 57.9023 111.12C57.3263 111.12 56.8943 110.984 56.6063 110.712C56.3343 110.424 56.1743 110.104 56.1263 109.752L56.0543 109.032C55.5103 109.736 54.8143 110.28 53.9663 110.664C53.1183 111.048 52.2623 111.24 51.3983 111.24C50.5663 111.24 49.8223 111.072 49.1663 110.736C48.5103 110.384 47.9983 109.912 47.6303 109.32C47.2623 108.728 47.0783 108.064 47.0783 107.328ZM55.0703 108.096C55.4863 107.68 55.6943 107.288 55.6943 106.92V105.48C54.7503 105.128 53.7903 104.952 52.8143 104.952C51.8543 104.952 51.0703 105.152 50.4623 105.552C49.8703 105.936 49.5742 106.456 49.5742 107.112C49.5742 107.656 49.7903 108.16 50.2223 108.624C50.6703 109.072 51.3103 109.296 52.1423 109.296C52.7023 109.296 53.2463 109.184 53.7743 108.96C54.3023 108.736 54.7343 108.448 55.0703 108.096ZM64.6193 111L59.8433 98.448H62.5793L66.1553 108.552L69.7313 98.448H72.2753L67.4993 111H64.6193ZM79.3881 111.24C78.0761 111.24 76.9321 110.944 75.9561 110.352C74.9961 109.744 74.2521 108.952 73.7241 107.976C73.1961 106.984 72.9321 105.904 72.9321 104.736C72.9321 103.568 73.1961 102.496 73.7241 101.52C74.2681 100.528 75.0201 99.736 75.9801 99.144C76.9561 98.536 78.0921 98.232 79.3881 98.232C80.6841 98.232 81.8121 98.536 82.7721 99.144C83.7481 99.736 84.5001 100.528 85.0281 101.52C85.5721 102.496 85.8441 103.568 85.8441 104.736C85.8441 105.904 85.5801 106.984 85.0521 107.976C84.5241 108.952 83.7721 109.744 82.7961 110.352C81.8361 110.944 80.7001 111.24 79.3881 111.24ZM75.6441 104.76C75.6441 105.56 75.8121 106.28 76.1481 106.92C76.4841 107.56 76.9321 108.064 77.4921 108.432C78.0521 108.8 78.6841 108.984 79.3881 108.984C80.0761 108.984 80.7001 108.8 81.2601 108.432C81.8361 108.048 82.2921 107.536 82.6281 106.896C82.9641 106.256 83.1321 105.536 83.1321 104.736C83.1321 103.936 82.9641 103.216 82.6281 102.576C82.2921 101.936 81.8361 101.432 81.2601 101.064C80.7001 100.68 80.0761 100.488 79.3881 100.488C78.7001 100.488 78.0681 100.68 77.4921 101.064C76.9321 101.432 76.4841 101.944 76.1481 102.6C75.8121 103.24 75.6441 103.96 75.6441 104.76ZM88.1856 96.384V93.48H90.8256V96.384H88.1856ZM88.1856 111V98.448H90.8256V111H88.1856ZM101.054 100.728C100.03 100.76 99.1181 101 98.3181 101.448C97.5341 101.88 96.9741 102.504 96.6381 103.32V111H93.9981V98.448H96.4461V101.256C96.8781 100.392 97.4461 99.704 98.1501 99.192C98.8541 98.664 99.5981 98.376 100.382 98.328C100.526 98.328 100.654 98.328 100.766 98.328C100.878 98.328 100.974 98.336 101.054 98.352V100.728ZM115.493 111.24C114.485 111.24 113.597 111 112.829 110.52C112.061 110.04 111.453 109.416 111.005 108.648V116.112H108.365V98.448H110.693V100.704C111.173 99.952 111.797 99.352 112.565 98.904C113.333 98.456 114.189 98.232 115.133 98.232C116.285 98.232 117.301 98.536 118.181 99.144C119.077 99.736 119.781 100.528 120.293 101.52C120.805 102.496 121.061 103.56 121.061 104.712C121.061 105.928 120.821 107.032 120.341 108.024C119.861 109 119.205 109.784 118.373 110.376C117.541 110.952 116.581 111.24 115.493 111.24ZM114.629 108.984C115.381 108.984 116.029 108.784 116.573 108.384C117.133 107.968 117.565 107.44 117.869 106.8C118.189 106.144 118.349 105.448 118.349 104.712C118.349 103.944 118.173 103.24 117.821 102.6C117.485 101.96 117.021 101.448 116.429 101.064C115.853 100.68 115.189 100.488 114.437 100.488C113.989 100.488 113.517 100.6 113.021 100.824C112.541 101.048 112.117 101.344 111.749 101.712C111.381 102.08 111.133 102.496 111.005 102.96V106.248C111.325 107.016 111.813 107.664 112.469 108.192C113.141 108.72 113.861 108.984 114.629 108.984ZM123.46 93.48H126.1V107.376C126.1 108.016 126.196 108.424 126.388 108.6C126.58 108.776 126.82 108.864 127.108 108.864C127.428 108.864 127.732 108.832 128.02 108.768C128.308 108.704 128.548 108.624 128.74 108.528L129.124 110.616C128.74 110.776 128.284 110.912 127.756 111.024C127.228 111.136 126.756 111.192 126.34 111.192C125.444 111.192 124.74 110.944 124.228 110.448C123.716 109.936 123.46 109.232 123.46 108.336V93.48ZM130.534 106.128V98.448H133.174V105.6C133.174 107.856 133.974 108.984 135.574 108.984C136.326 108.984 137.038 108.752 137.71 108.288C138.382 107.808 138.902 107.136 139.27 106.272V98.448H141.91V108.024C141.91 108.328 141.966 108.544 142.078 108.672C142.19 108.8 142.374 108.872 142.63 108.888V111C142.358 111.048 142.134 111.08 141.958 111.096C141.782 111.112 141.614 111.12 141.454 111.12C140.974 111.12 140.574 110.992 140.254 110.736C139.934 110.48 139.75 110.136 139.702 109.704L139.654 108.456C139.094 109.368 138.366 110.064 137.47 110.544C136.574 111.008 135.59 111.24 134.518 111.24C133.206 111.24 132.214 110.808 131.542 109.944C130.87 109.08 130.534 107.808 130.534 106.128ZM149.743 111.24C148.687 111.24 147.687 111.064 146.743 110.712C145.799 110.36 144.991 109.848 144.319 109.176L145.303 107.4C146.023 108.04 146.743 108.504 147.463 108.792C148.183 109.08 148.911 109.224 149.647 109.224C150.383 109.224 150.983 109.088 151.447 108.816C151.911 108.528 152.143 108.112 152.143 107.568C152.143 107.184 152.023 106.888 151.783 106.68C151.543 106.472 151.191 106.304 150.727 106.176C150.279 106.048 149.735 105.888 149.095 105.696C148.199 105.424 147.447 105.144 146.839 104.856C146.231 104.552 145.775 104.184 145.471 103.752C145.167 103.32 145.015 102.768 145.015 102.096C145.015 100.88 145.471 99.936 146.383 99.264C147.295 98.576 148.487 98.232 149.959 98.232C150.871 98.232 151.711 98.376 152.479 98.664C153.263 98.936 153.951 99.368 154.543 99.96L153.415 101.712C152.327 100.72 151.127 100.224 149.815 100.224C149.239 100.224 148.703 100.336 148.207 100.56C147.727 100.784 147.487 101.2 147.487 101.808C147.487 102.32 147.703 102.688 148.135 102.912C148.567 103.136 149.207 103.376 150.055 103.632C151.015 103.92 151.839 104.208 152.527 104.496C153.231 104.768 153.767 105.128 154.135 105.576C154.519 106.008 154.711 106.608 154.711 107.376C154.711 108.592 154.255 109.544 153.343 110.232C152.431 110.904 151.231 111.24 149.743 111.24ZM167.462 111.24C166.406 111.24 165.406 111.064 164.462 110.712C163.518 110.36 162.71 109.848 162.038 109.176L163.022 107.4C163.742 108.04 164.462 108.504 165.182 108.792C165.902 109.08 166.63 109.224 167.366 109.224C168.102 109.224 168.702 109.088 169.166 108.816C169.63 108.528 169.862 108.112 169.862 107.568C169.862 107.184 169.742 106.888 169.502 106.68C169.262 106.472 168.91 106.304 168.446 106.176C167.998 106.048 167.454 105.888 166.814 105.696C165.918 105.424 165.166 105.144 164.558 104.856C163.95 104.552 163.494 104.184 163.19 103.752C162.886 103.32 162.734 102.768 162.734 102.096C162.734 100.88 163.19 99.936 164.102 99.264C165.014 98.576 166.206 98.232 167.678 98.232C168.59 98.232 169.43 98.376 170.198 98.664C170.982 98.936 171.67 99.368 172.262 99.96L171.134 101.712C170.046 100.72 168.846 100.224 167.534 100.224C166.958 100.224 166.422 100.336 165.926 100.56C165.446 100.784 165.206 101.2 165.206 101.808C165.206 102.32 165.422 102.688 165.854 102.912C166.286 103.136 166.926 103.376 167.774 103.632C168.734 103.92 169.558 104.208 170.246 104.496C170.95 104.768 171.486 105.128 171.854 105.576C172.238 106.008 172.43 106.608 172.43 107.376C172.43 108.592 171.974 109.544 171.062 110.232C170.15 110.904 168.95 111.24 167.462 111.24ZM174.667 106.128V98.448H177.307V105.6C177.307 107.856 178.107 108.984 179.707 108.984C180.459 108.984 181.171 108.752 181.843 108.288C182.515 107.808 183.035 107.136 183.403 106.272V98.448H186.043V108.024C186.043 108.328 186.099 108.544 186.211 108.672C186.323 108.8 186.507 108.872 186.763 108.888V111C186.491 111.048 186.267 111.08 186.091 111.096C185.915 111.112 185.747 111.12 185.587 111.12C185.107 111.12 184.707 110.992 184.387 110.736C184.067 110.48 183.883 110.136 183.835 109.704L183.787 108.456C183.227 109.368 182.499 110.064 181.603 110.544C180.707 111.008 179.723 111.24 178.651 111.24C177.339 111.24 176.347 110.808 175.675 109.944C175.003 109.08 174.667 107.808 174.667 106.128ZM196.468 100.728C195.444 100.76 194.532 101 193.732 101.448C192.948 101.88 192.388 102.504 192.052 103.32V111H189.412V98.448H191.86V101.256C192.292 100.392 192.86 99.704 193.564 99.192C194.268 98.664 195.012 98.376 195.796 98.328C195.94 98.328 196.068 98.328 196.18 98.328C196.292 98.328 196.388 98.336 196.468 98.352V100.728ZM203.803 93.48H206.443V107.376C206.443 108.016 206.539 108.424 206.731 108.6C206.923 108.776 207.163 108.864 207.451 108.864C207.771 108.864 208.075 108.832 208.363 108.768C208.651 108.704 208.891 108.624 209.083 108.528L209.467 110.616C209.083 110.776 208.627 110.912 208.099 111.024C207.571 111.136 207.099 111.192 206.683 111.192C205.787 111.192 205.083 110.944 204.571 110.448C204.059 109.936 203.803 109.232 203.803 108.336V93.48ZM216.686 111.24C215.39 111.24 214.254 110.944 213.278 110.352C212.302 109.76 211.542 108.976 210.998 108C210.454 107.008 210.182 105.928 210.182 104.76C210.182 103.576 210.454 102.488 210.998 101.496C211.542 100.504 212.302 99.712 213.278 99.12C214.254 98.528 215.398 98.232 216.71 98.232C218.022 98.232 219.158 98.536 220.118 99.144C221.078 99.736 221.814 100.52 222.326 101.496C222.854 102.472 223.118 103.52 223.118 104.64C223.118 105.04 223.094 105.36 223.046 105.6H212.99C213.038 106.336 213.238 106.984 213.59 107.544C213.958 108.088 214.414 108.52 214.958 108.84C215.518 109.144 216.126 109.296 216.782 109.296C217.486 109.296 218.15 109.12 218.774 108.768C219.398 108.416 219.83 107.952 220.07 107.376L222.326 108.024C221.894 108.968 221.174 109.744 220.166 110.352C219.174 110.944 218.014 111.24 216.686 111.24ZM212.918 103.848H220.502C220.438 103.128 220.23 102.496 219.878 101.952C219.526 101.392 219.07 100.96 218.51 100.656C217.966 100.336 217.358 100.176 216.686 100.176C216.03 100.176 215.422 100.336 214.862 100.656C214.318 100.96 213.87 101.392 213.518 101.952C213.166 102.496 212.966 103.128 212.918 103.848ZM1.608 121.48H4.248V135.376C4.248 136.016 4.344 136.424 4.536 136.6C4.728 136.776 4.968 136.864 5.256 136.864C5.576 136.864 5.88 136.832 6.168 136.768C6.456 136.704 6.696 136.624 6.888 136.528L7.272 138.616C6.888 138.776 6.432 138.912 5.904 139.024C5.376 139.136 4.904 139.192 4.488 139.192C3.592 139.192 2.888 138.944 2.376 138.448C1.864 137.936 1.608 137.232 1.608 136.336V121.48ZM8.80275 124.384V121.48H11.4428V124.384H8.80275ZM8.80275 139V126.448H11.4428V139H8.80275ZM18.1193 139L13.3433 126.448H16.0793L19.6553 136.552L23.2313 126.448H25.7753L20.9993 139H18.1193ZM34.7259 128.728C33.7019 128.76 32.7899 129 31.9899 129.448C31.2059 129.88 30.6459 130.504 30.3099 131.32V139H27.6699V126.448H30.1179V129.256C30.5499 128.392 31.1179 127.704 31.8219 127.192C32.5259 126.664 33.2699 126.376 34.0539 126.328C34.1979 126.328 34.3259 126.328 34.4379 126.328C34.5499 126.328 34.6459 126.336 34.7259 126.352V128.728ZM42.1236 139.24C40.8276 139.24 39.6916 138.944 38.7156 138.352C37.7396 137.76 36.9796 136.976 36.4356 136C35.8916 135.008 35.6196 133.928 35.6196 132.76C35.6196 131.576 35.8916 130.488 36.4356 129.496C36.9796 128.504 37.7396 127.712 38.7156 127.12C39.6916 126.528 40.8356 126.232 42.1476 126.232C43.4596 126.232 44.5956 126.536 45.5556 127.144C46.5156 127.736 47.2516 128.52 47.7636 129.496C48.2916 130.472 48.5556 131.52 48.5556 132.64C48.5556 133.04 48.5316 133.36 48.4836 133.6H38.4276C38.4756 134.336 38.6756 134.984 39.0276 135.544C39.3956 136.088 39.8516 136.52 40.3956 136.84C40.9556 137.144 41.5636 137.296 42.2196 137.296C42.9236 137.296 43.5876 137.12 44.2116 136.768C44.8356 136.416 45.2676 135.952 45.5076 135.376L47.7636 136.024C47.3316 136.968 46.6116 137.744 45.6036 138.352C44.6116 138.944 43.4516 139.24 42.1236 139.24ZM38.3556 131.848H45.9396C45.8756 131.128 45.6676 130.496 45.3156 129.952C44.9636 129.392 44.5076 128.96 43.9476 128.656C43.4036 128.336 42.7956 128.176 42.1236 128.176C41.4676 128.176 40.8596 128.336 40.2996 128.656C39.7556 128.96 39.3076 129.392 38.9556 129.952C38.6036 130.496 38.4036 131.128 38.3556 131.848ZM50.709 129.616V126.568H52.893V129.616H50.709ZM50.709 139V135.928H52.893V139H50.709Z" fill="#685854"/>
<g clip-path="url(#clip0_704_960)">
<path d="M172.2 64.7731L185.52 51.6301C185.768 51.388 185.964 51.0989 186.098 50.7797C186.233 50.4606 186.302 50.1178 186.302 49.7716C186.302 49.4254 186.233 49.0826 186.098 48.7635C185.964 48.4443 185.768 48.1552 185.52 47.9131L172.2 34.7701C171.697 34.2767 171.021 34.0002 170.317 34.0002C169.612 34.0002 168.936 34.2767 168.433 34.7701C168.186 35.0122 167.989 35.3013 167.855 35.6205C167.72 35.9396 167.651 36.2824 167.651 36.6286C167.651 36.9748 167.72 37.3176 167.855 37.6367C167.989 37.9558 168.186 38.245 168.433 38.4871L177.2 47.1431H151.664C151.315 47.1363 150.967 47.1992 150.642 47.3283C150.317 47.4573 150.022 47.6498 149.772 47.8946C149.522 48.1393 149.324 48.4314 149.189 48.7537C149.053 49.076 148.984 49.422 148.984 49.7716C148.984 50.1212 149.053 50.4672 149.189 50.7895C149.324 51.1118 149.522 51.4039 149.772 51.6486C150.022 51.8934 150.317 52.0859 150.642 52.2149C150.967 52.344 151.315 52.4069 151.664 52.4001H177.2L168.426 61.0561C168.179 61.2982 167.982 61.5873 167.848 61.9065C167.713 62.2256 167.644 62.5684 167.644 62.9146C167.644 63.2608 167.713 63.6036 167.848 63.9227C167.982 64.2418 168.179 64.531 168.426 64.7731C168.929 65.2665 169.605 65.5429 170.31 65.5429C171.014 65.5429 171.69 65.2665 172.193 64.7731H172.2Z" fill="#FFBE00"/>
</g>
<g clip-path="url(#clip1_704_960)">
<path d="M172.2 153.773L185.52 140.63C185.768 140.388 185.964 140.099 186.098 139.78C186.233 139.461 186.302 139.118 186.302 138.772C186.302 138.425 186.233 138.083 186.098 137.763C185.964 137.444 185.768 137.155 185.52 136.913L172.2 123.77C171.697 123.277 171.021 123 170.317 123C169.612 123 168.936 123.277 168.433 123.77C168.186 124.012 167.989 124.301 167.855 124.62C167.72 124.94 167.651 125.282 167.651 125.629C167.651 125.975 167.72 126.318 167.855 126.637C167.989 126.956 168.186 127.245 168.433 127.487L177.2 136.143H151.664C151.315 136.136 150.967 136.199 150.642 136.328C150.317 136.457 150.022 136.65 149.772 136.895C149.522 137.139 149.324 137.431 149.189 137.754C149.053 138.076 148.984 138.422 148.984 138.772C148.984 139.121 149.053 139.467 149.189 139.789C149.324 140.112 149.522 140.404 149.772 140.649C150.022 140.893 150.317 141.086 150.642 141.215C150.967 141.344 151.315 141.407 151.664 141.4H177.2L168.426 150.056C168.179 150.298 167.982 150.587 167.848 150.906C167.713 151.226 167.644 151.568 167.644 151.915C167.644 152.261 167.713 152.604 167.848 152.923C167.982 153.242 168.179 153.531 168.426 153.773C168.929 154.267 169.605 154.543 170.31 154.543C171.014 154.543 171.69 154.267 172.193 153.773H172.2Z" fill="#FFBE00"/>
</g>
<defs>
<clipPath id="clip0_704_960">
<rect width="37.3" height="31.542" fill="white" transform="translate(149 34)"/>
</clipPath>
<clipPath id="clip1_704_960">
<rect width="37.3" height="31.542" fill="white" transform="translate(149 123)"/>
</clipPath>
</defs>
</svg>
