<svg width="22" height="19" viewBox="0 0 22 19" fill="none" xmlns="http://www.w3.org/2000/svg">
<g clip-path="url(#clip0_664_856)">
<path d="M21.7187 2.24696C20.9246 2.63588 20.0814 2.88978 19.2181 2.99996C20.1271 2.39999 20.8078 1.45742 21.134 0.346957C20.2784 0.90532 19.3429 1.29928 18.3673 1.51196C17.7111 0.740867 16.8422 0.229838 15.8954 0.0581538C14.9485 -0.113531 13.9767 0.0637266 13.1307 0.562426C12.2847 1.06113 11.6117 1.85339 11.2163 2.8163C10.8208 3.77921 10.725 4.85893 10.9436 5.88796C9.21142 5.79225 7.5169 5.29629 5.97011 4.43229C4.42333 3.56829 3.05888 2.35559 1.9654 0.872957C1.40924 1.92861 1.2391 3.17794 1.48958 4.36683C1.74005 5.55573 2.39234 6.5949 3.31376 7.27296C2.62184 7.24846 1.94518 7.04278 1.33979 6.67296V6.73196C1.34085 7.83922 1.68947 8.91203 2.32656 9.7686C2.96366 10.6252 3.85006 11.2128 4.83555 11.432C4.46122 11.5444 4.07494 11.6012 3.68695 11.601C3.4127 11.5996 3.13916 11.5705 2.86976 11.514C3.14731 12.4676 3.68795 13.3022 4.4164 13.9016C5.14485 14.5009 6.02486 14.8353 6.93392 14.858C5.39078 16.193 3.4846 16.9172 1.5223 16.914C1.1742 16.9142 0.826402 16.8912 0.480835 16.845C2.47368 18.2559 4.79363 19.0041 7.16273 19C8.7933 19.0117 10.4097 18.6665 11.9182 17.9846C13.4267 17.3027 14.7971 16.2976 15.95 15.0276C17.1029 13.7576 18.0152 12.248 18.6341 10.5865C19.2529 8.92507 19.566 7.14476 19.555 5.34896C19.555 5.13896 19.555 4.93296 19.5423 4.72796C20.3957 4.05144 21.1317 3.21141 21.7151 2.24796L21.7187 2.24696Z" fill="#FFBE00"/>
</g>
<defs>
<clipPath id="clip0_664_856">
<rect width="21.237" height="19.001" fill="white" transform="translate(0.481842)"/>
</clipPath>
</defs>
</svg>
